 <svg  version="1.0" xmlns="http://www.w3.org/2000/svg"  width="300.000000pt" height="416.000000pt" viewBox="0 0 300.000000 416.000000"  preserveAspectRatio="xMidYMid meet">  <g transform="translate(0.000000,416.000000) scale(0.100000,-0.100000)" fill="#008cb4" stroke="none"> <path d="M0 4098 c1 -61 1 -62 14 -33 18 41 58 76 98 85 26 6 19 8 -39 9 l-73 1 0 -62z"/> <path d="M150 4152 c0 -5 -18 -16 -40 -26 -25 -11 -50 -33 -65 -56 -13 -21 -29 -41 -35 -45 -7 -4 -10 -612 -10 -1944 l0 -1937 53 -57 c29 -31 58 -57 65 -57 7 0 15 -7 18 -15 5 -13 166 -15 1359 -15 1190 0 1354 2 1365 15 7 8 19 15 26 15 8 0 14 5 14 11 0 5 4 8 9 5 12 -8 46 32 64 74 l15 35 1 -30 c1 -49 -38 -97 -94 -114 -25 -8 -19 -9 38 -10 l67 -1 0 2080 0 2080 -72 -1 c-61 -1 -67 -2 -38 -9 45 -11 100 -70 100 -107 -1 -27 -1 -27 -15 -9 -8 11 -15 24 -15 29 0 15 -41 48 -82 67 -21 9 -35 20 -31 23 3 4 -602 7 -1345 7 -744 0 -1352 -4 -1352 -8z m2699 -150 c21 -17 21 -24 22 -367 1 -441 -11 -1428 -16 -1434 -3 -2 -5 396 -5 885 0 488 -4 892 -8 896 -4 4 -526 8 -1160 8 -696 0 -1152 4 -1152 10 0 5 15 10 33 12 17 2 534 4 1149 5 1047 3 1117 2 1137 -15z m-2381 -3 c-17 -10 -194 -6 -205 4 -4 4 44 7 107 6 65 -1 107 -5 98 -10z m91 -52 c-6 -14 -22 -27 -36 -30 -24 -4 -23 -3 8 29 37 38 45 38 28 1z m325 -29 c-16 -24 -50 -87 -76 -140 -26 -54 -50 -98 -53 -98 -6 0 9 39 30 80 8 16 15 38 15 50 0 11 4 20 10 20 11 0 42 55 34 62 -2 3 2 11 11 18 8 7 15 17 15 23 0 16 34 50 38 39 2 -6 -9 -30 -24 -54z m100 47 c-4 -8 -1 -15 5 -15 23 0 10 -20 -21 -34 -18 -7 -35 -12 -37 -10 -3 3 49 74 55 74 2 0 1 -7 -2 -15z m-499 -5 c-3 -5 -12 -10 -18 -10 -7 0 -6 4 3 10 19 12 23 12 15 0z m2040 -35 c19 -16 19 -16 -10 -10 -35 8 -57 24 -49 36 6 10 27 1 59 -26z m123 -1 c12 -8 26 -12 32 -9 5 3 7 0 4 -9 -5 -13 -10 -12 -37 4 -17 10 -34 17 -39 14 -4 -3 -8 0 -8 5 0 16 22 13 48 -5z m-223 -4 c3 -5 1 -10 -4 -10 -6 0 -11 5 -11 10 0 6 2 10 4 10 3 0 8 -4 11 -10z m-1764 -23 c-10 -9 -11 -8 -5 6 3 10 9 15 12 12 3 -3 0 -11 -7 -18z m1619 13 c0 -5 -5 -10 -11 -10 -5 0 -7 5 -4 10 3 6 8 10 11 10 2 0 4 -4 4 -10z m97 4 c-3 -3 -12 -4 -19 -1 -8 3 -5 6 6 6 11 1 17 -2 13 -5z m-1844 -25 c-4 -12 -14 -38 -25 -58 -18 -36 -18 -36 -14 -6 5 35 26 85 37 85 4 0 5 -10 2 -21z m292 11 c3 -5 -1 -10 -10 -10 -9 0 -13 5 -10 10 3 6 8 10 10 10 2 0 7 -4 10 -10z m-194 -33 c-10 -9 -11 -8 -5 6 3 10 9 15 12 12 3 -3 0 -11 -7 -18z m159 19 c0 -2 -7 -7 -16 -10 -8 -3 -12 -2 -9 4 6 10 25 14 25 6z m135 -42 c-14 -13 -25 -30 -25 -39 0 -8 -4 -15 -8 -15 -11 0 -58 -100 -54 -115 1 -7 -7 -20 -18 -30 -30 -27 -25 -5 26 102 53 110 70 134 90 126 11 -4 9 -11 -11 -29z m765 -59 l50 -75 -55 -31 -56 -31 52 -24 c61 -28 59 -28 59 -8 0 35 41 53 123 54 44 0 77 4 77 10 0 16 167 13 173 -3 3 -7 11 -54 18 -105 11 -77 15 -91 28 -86 9 4 35 12 59 18 l42 11 0 50 c0 39 5 55 21 68 20 17 25 17 134 -7 63 -15 117 -26 120 -26 3 0 5 -7 5 -15 0 -17 17 -20 22 -4 5 14 198 -31 205 -48 5 -12 -173 -562 -186 -574 -3 -3 -41 5 -83 19 -73 23 -78 26 -78 52 0 26 -3 29 -52 35 -82 10 -88 13 -88 46 0 30 -6 32 -50 20 -21 -6 -24 -12 -22 -39 4 -37 8 -37 -98 -16 -45 8 -87 13 -93 11 -7 -2 12 -7 40 -11 29 -5 55 -11 57 -15 5 -7 -153 15 -161 22 -9 10 -11 47 -2 47 5 0 9 -6 9 -14 0 -14 29 -30 38 -21 3 3 0 5 -6 5 -7 0 -12 12 -12 26 0 21 -4 24 -19 19 -15 -4 -24 1 -35 22 -13 25 -15 26 -22 9 -5 -13 -2 -23 10 -31 10 -8 13 -16 7 -19 -5 -4 -16 3 -25 15 -12 18 -18 20 -29 10 -11 -9 -34 -8 -102 4 -47 8 -90 17 -95 20 -4 3 -4 21 0 40 l8 34 -29 -14 c-15 -8 -35 -15 -44 -15 -12 0 -15 -14 -15 -74 0 -72 -1 -74 -29 -85 -26 -11 -39 -7 -162 56 -74 37 -137 69 -141 71 -5 2 -8 -17 -8 -42 0 -40 -4 -47 -28 -60 -21 -11 -152 -36 -188 -36 -2 0 -4 11 -4 25 0 30 -9 31 -60 5 -51 -26 -125 -26 -167 0 -18 11 -33 25 -33 31 0 6 16 1 35 -11 43 -27 46 -18 5 17 -35 29 -60 72 -60 103 0 11 -4 20 -10 20 -12 0 -14 12 15 -105 31 -124 31 -129 0 -143 -33 -15 -173 -62 -185 -62 -5 0 -17 15 -26 33 -31 58 -144 321 -140 324 10 10 48 -68 131 -269 15 -38 34 -68 41 -68 16 0 19 -7 -85 225 -75 167 -82 180 -105 177 -21 -2 -32 10 -79 87 -41 69 -56 88 -65 79 -9 -9 -9 -5 0 14 36 76 283 159 412 138 119 -19 206 -100 206 -191 0 -26 3 -30 18 -24 9 4 38 10 65 12 26 3 47 9 47 14 0 5 -3 9 -7 9 -5 0 -6 25 -5 56 3 39 1 54 -7 50 -6 -4 -12 -33 -12 -64 l-2 -57 -7 60 c-7 55 -5 62 16 80 19 17 231 95 257 95 4 0 7 -7 7 -17 0 -14 2 -14 20 2 22 20 15 24 124 -68 25 -21 50 -36 56 -32 8 5 8 11 -1 21 -9 11 3 31 60 98 80 94 131 146 143 146 4 0 30 -34 58 -75z m324 60 c4 -10 -1 -15 -16 -15 -17 0 -18 2 -8 15 7 8 14 15 15 15 2 0 5 -7 9 -15z m-47 -21 c-3 -3 -12 -4 -19 -1 -8 3 -5 6 6 6 11 1 17 -2 13 -5z m717 -3 c4 -5 -3 -7 -14 -4 -23 6 -26 13 -6 13 8 0 17 -4 20 -9z m-204 -21 c0 -5 -5 -10 -11 -10 -5 0 -7 5 -4 10 3 6 8 10 11 10 2 0 4 -4 4 -10z m-1860 -20 c-6 -11 -16 -20 -23 -19 -9 0 -9 2 1 6 6 2 12 11 12 19 0 8 5 14 10 14 7 0 7 -6 0 -20z m1240 15 c0 -2 -10 -9 -22 -15 -22 -11 -22 -10 -4 4 21 17 26 19 26 11z m-1370 -42 c-7 -40 -29 -88 -36 -80 -3 2 0 17 6 32 6 16 9 34 6 42 -3 7 -1 13 4 13 6 0 9 3 9 8 -2 14 1 22 10 22 4 0 5 -17 1 -37z m180 27 c0 -5 -5 -10 -11 -10 -5 0 -7 5 -4 10 3 6 8 10 11 10 2 0 4 -4 4 -10z m1865 -19 c-6 -5 -25 10 -25 20 0 5 6 4 14 -3 8 -7 12 -15 11 -17z m-1375 -16 c-7 -9 -15 -13 -19 -10 -3 3 1 10 9 15 21 14 24 12 10 -5z m1410 -55 c0 -5 -4 -10 -10 -10 -5 0 -10 5 -10 10 0 6 5 10 10 10 6 0 10 -4 10 -10z m-280 -9 c0 -4 -24 -11 -52 -14 -29 -4 -64 -9 -78 -12 -24 -6 -24 -6 -5 7 11 7 45 15 75 19 30 3 56 7 58 8 1 0 2 -3 2 -8z m118 2 c-10 -2 -28 -2 -40 0 -13 2 -5 4 17 4 22 1 32 -1 23 -4z m-2103 -43 c-3 -5 -10 -10 -16 -10 -5 0 -9 5 -9 10 0 6 7 10 16 10 8 0 12 -4 9 -10z m1935 -20 c-20 -13 -43 -13 -35 0 3 6 16 10 28 10 18 0 19 -2 7 -10z m-62 -11 c-2 -6 -8 -10 -13 -10 -5 0 -11 4 -13 10 -2 6 4 11 13 11 9 0 15 -5 13 -11z m-1301 -21 c-3 -8 -6 -5 -6 6 -1 11 2 17 5 13 3 -3 4 -12 1 -19z m-617 -168 c0 -5 -2 -10 -4 -10 -3 0 -8 5 -11 10 -3 6 -1 10 4 10 6 0 11 -4 11 -10z m109 -104 c10 -12 8 -13 -8 -9 -12 3 -18 9 -15 14 7 12 10 11 23 -5z m2426 4 c3 -5 1 -10 -4 -10 -6 0 -11 5 -11 10 0 6 2 10 4 10 3 0 8 -4 11 -10z m-2424 -69 c-10 -6 -10 -10 -1 -13 9 -3 11 -26 5 -98 -7 -73 -10 -88 -15 -63 -7 33 -7 49 4 115 3 20 1 40 -4 43 -16 10 -11 25 8 25 13 0 14 -2 3 -9z m1891 -166 c-6 -34 -12 -32 -12 6 0 16 4 28 9 25 4 -3 6 -17 3 -31z m-418 -3 c3 -5 -1 -9 -9 -9 -8 0 -12 4 -9 9 3 4 7 8 9 8 2 0 6 -4 9 -8z m836 -26 c0 -2 -7 -7 -16 -10 -8 -3 -12 -2 -9 4 6 10 25 14 25 6z m-1660 -17 c0 -11 -148 -171 -165 -178 -11 -4 8 20 70 87 22 24 48 57 58 73 19 29 37 38 37 18z m-653 -68 c2 -30 5 -57 5 -60 0 -4 0 -15 -1 -25 -2 -33 -15 -8 -16 32 -1 21 -4 42 -8 48 -3 6 -8 23 -11 38 -4 21 -1 27 11 24 11 -2 17 -18 20 -57z m1681 43 c-12 -11 -67 -12 -71 -1 -3 9 6 11 35 9 21 -3 38 -6 36 -8z m696 -15 c16 -17 24 -34 20 -41 -5 -8 -10 -6 -15 8 -8 18 -8 18 -14 -2 -5 -17 -18 -23 -56 -28 -60 -8 -68 -4 -67 34 1 33 18 42 18 10 0 -11 5 -20 11 -20 6 0 8 9 4 20 -4 11 -2 20 4 20 6 0 11 -10 12 -22 0 -13 3 -17 6 -9 4 11 7 11 14 0 4 -7 11 -11 14 -7 14 14 -20 48 -48 48 -16 0 -26 4 -22 10 3 5 25 9 49 8 34 0 49 -7 70 -29z m-804 -4 c-10 -12 -15 -13 -21 -4 -6 10 -12 10 -26 -2 -16 -13 -17 -13 -4 4 7 9 25 17 38 17 22 0 24 -2 13 -15z m-430 -6 c0 -5 -4 -8 -9 -4 -5 3 -12 1 -16 -5 -3 -5 -11 -10 -18 -10 -6 0 -2 7 9 15 23 17 34 19 34 4z m-290 -14 c0 -2 -24 -11 -52 -21 -29 -9 -95 -38 -145 -64 -51 -27 -93 -45 -93 -41 0 13 40 45 59 48 19 3 138 54 180 77 21 12 51 12 51 1z m610 -5 c0 -5 -10 -14 -21 -21 -17 -9 -20 -8 -16 3 2 7 10 12 16 11 6 -2 11 2 11 7 0 6 2 10 5 10 3 0 5 -4 5 -10z m-790 -3 c0 -2 -10 -12 -22 -23 l-23 -19 19 23 c18 21 26 27 26 19z m400 -19 c0 -19 -2 -20 -10 -8 -13 19 -13 30 0 30 6 0 10 -10 10 -22z m76 -4 c-3 -7 3 -15 12 -17 11 -3 8 -5 -8 -6 -19 -1 -26 4 -26 17 0 10 6 19 14 19 7 0 11 -6 8 -13z m59 6 c-3 -5 -11 -10 -16 -10 -6 0 -7 5 -4 10 3 6 11 10 16 10 6 0 7 -4 4 -10z m962 -6 c-3 -3 -12 -4 -19 -1 -8 3 -5 6 6 6 11 1 17 -2 13 -5z m264 -5 c11 -5 17 -14 14 -19 -6 -10 -45 9 -45 22 0 11 8 10 31 -3z m-1595 -14 c-11 -8 -25 -15 -30 -15 -6 1 0 7 14 15 32 19 40 18 16 0z m935 -17 c-11 -10 -13 -10 -7 0 4 6 2 12 -4 12 -6 0 -8 5 -4 11 4 8 9 8 17 0 8 -8 7 -14 -2 -23z m-1575 -418 c-20 -84 -16 -196 10 -258 8 -20 12 -44 8 -54 -6 -19 -6 -19 -21 2 -8 11 -12 28 -9 36 3 8 2 13 -3 9 -12 -7 -35 61 -25 76 4 7 3 9 -3 6 -7 -4 -12 7 -15 28 -3 26 -1 34 9 31 17 -7 16 2 -2 20 -11 11 -13 30 -8 82 8 88 21 123 23 62 l2 -45 14 60 c8 38 13 112 12 205 -1 80 2 152 7 160 7 10 12 -45 15 -165 4 -153 2 -191 -14 -255z m87 388 c-3 -24 -5 -50 -4 -58 1 -8 1 -32 1 -53 -1 -54 8 -61 37 -27 13 17 29 27 35 24 5 -3 8 2 6 11 -2 10 3 20 10 22 6 3 12 -1 12 -8 0 -7 11 -2 26 12 14 13 22 17 19 9 -3 -8 -26 -30 -50 -48 -25 -18 -63 -57 -85 -87 -41 -55 -60 -72 -40 -36 5 11 10 75 10 144 0 68 3 127 7 130 16 16 21 4 16 -35z m1067 32 c12 -8 11 -10 -7 -10 -13 0 -23 5 -23 10 0 13 11 13 30 0z m73 -11 c5 -3 2 -9 -7 -12 -12 -5 -16 0 -16 15 0 12 3 17 8 12 4 -5 11 -12 15 -15z m-658 -9 c-3 -5 -11 -10 -16 -10 -6 0 -7 5 -4 10 3 6 11 10 16 10 6 0 7 -4 4 -10z m709 -11 c-5 -8 1 -10 19 -7 15 3 28 0 30 -6 3 -8 -8 -12 -29 -12 -31 0 -44 13 -27 29 10 11 15 8 7 -4z m472 3 c5 -5 31 -17 57 -26 27 -10 46 -20 44 -23 -8 -7 -121 33 -125 45 -4 14 10 16 24 4z m-1565 -43 c-9 -23 -10 -22 -10 11 -1 23 2 31 9 24 7 -7 7 -19 1 -35z m466 19 c-3 -8 -6 -5 -6 6 -1 11 2 17 5 13 3 -3 4 -12 1 -19z m-137 4 c0 -4 -20 -16 -45 -27 -25 -10 -55 -31 -67 -46 -12 -15 -26 -25 -30 -23 -5 3 -11 -2 -14 -10 -3 -9 -10 -14 -14 -11 -4 2 -16 -5 -26 -16 -10 -12 -28 -26 -39 -31 -48 -25 46 58 128 113 86 57 107 67 107 51z m-696 -37 c5 -22 4 -26 -4 -15 -5 8 -10 24 -10 34 0 26 6 18 14 -19z m1576 14 c0 -14 -37 -10 -43 4 -4 10 2 13 19 9 13 -2 24 -8 24 -13z m810 -20 c0 -5 -11 -2 -25 7 -14 9 -25 20 -25 25 0 5 11 2 25 -7 14 -9 25 -20 25 -25z m-255 21 c3 -5 -1 -10 -9 -10 -9 0 -16 5 -16 10 0 6 4 10 9 10 6 0 13 -4 16 -10z m-52 -17 c-7 -2 -19 -2 -25 0 -7 3 -2 5 12 5 14 0 19 -2 13 -5z m-738 -43 c137 -43 242 -114 337 -229 51 -60 113 -189 133 -273 17 -76 22 -241 7 -246 -7 -2 -7 -14 -1 -34 11 -41 4 -47 -14 -11 -59 112 -305 200 -673 239 -61 6 -61 6 -73 -24 -16 -38 -72 -97 -111 -117 -107 -55 -232 -9 -271 100 -12 33 -16 35 -44 29 -52 -11 -125 -46 -140 -68 l-15 -20 0 21 c0 12 4 24 9 27 5 4 5 18 -1 34 -12 32 12 105 79 242 43 88 154 205 246 259 65 38 171 79 237 91 72 14 217 4 295 -20z m272 4 c-3 -3 -12 -4 -19 -1 -8 3 -5 6 6 6 11 1 17 -2 13 -5z m-1707 -28 c0 -2 -7 -9 -15 -16 -13 -11 -14 -10 -9 4 5 14 24 23 24 12z m126 -13 c-31 -32 -98 -127 -121 -173 -78 -154 -52 -399 60 -569 85 -129 207 -253 338 -342 31 -22 68 -57 81 -78 24 -38 95 -101 114 -101 5 0 12 -7 15 -15 5 -12 2 -12 -18 -3 -14 6 -25 14 -25 18 0 9 -40 23 -57 21 -7 -1 -13 5 -13 13 0 8 -8 21 -19 28 -10 7 -18 18 -18 23 1 13 -140 132 -175 148 -16 6 -28 18 -28 25 0 8 -13 19 -30 25 -18 7 -30 19 -30 30 0 10 -4 15 -10 12 -5 -3 -15 5 -22 19 -6 14 -15 26 -20 26 -4 0 -7 4 -5 9 1 5 -14 26 -35 48 -20 22 -46 58 -57 79 -70 128 -90 170 -94 198 -13 87 -20 116 -28 116 -5 0 -5 10 0 23 4 12 11 58 15 101 4 44 14 92 22 107 8 16 14 31 14 34 -2 22 83 142 125 177 26 23 44 23 21 1z m77 -11 c-3 -12 -9 -22 -14 -22 -5 0 -3 11 3 25 13 30 20 28 11 -3z m291 16 c-4 -7 -27 -35 -50 -63 -23 -27 -58 -79 -79 -115 -31 -55 -36 -60 -31 -31 7 42 64 135 111 184 35 36 64 50 49 25z m-320 -46 c3 -5 -1 -9 -9 -9 -8 0 -12 4 -9 9 3 4 7 8 9 8 2 0 6 -4 9 -8z m338 -50 c-12 -11 -19 -21 -16 -24 3 -3 -2 -8 -11 -12 -11 -4 -14 -2 -9 7 13 22 47 57 52 52 3 -3 -4 -13 -16 -23z m-390 -27 c-2 -14 -7 -23 -11 -21 -3 2 -7 -16 -8 -40 -1 -26 2 -42 7 -39 6 4 10 1 10 -4 0 -6 -4 -11 -10 -11 -5 0 -10 -7 -10 -16 0 -8 5 -12 10 -9 6 3 10 1 10 -4 0 -14 -17 -14 -25 -1 -4 6 -10 8 -14 6 -13 -8 6 131 20 147 20 23 27 21 21 -8z m1783 -11 c7 2 25 -9 41 -25 34 -35 25 -39 -10 -4 -13 13 -26 20 -28 14 -4 -12 -48 27 -48 44 0 6 7 1 16 -11 9 -13 22 -21 29 -18z m-1700 -46 c-13 -29 -26 -71 -29 -93 -3 -22 -5 -40 -6 -41 0 0 -7 -1 -15 -1 -10 0 -12 4 -4 13 5 6 10 33 11 59 0 25 6 52 14 59 10 10 10 16 1 25 -9 9 -8 11 4 6 9 -3 22 1 29 10 21 25 20 17 -5 -37z m-295 10 c0 -18 -2 -20 -9 -8 -6 8 -7 18 -5 22 9 14 14 9 14 -14z m537 -20 c0 -13 -1 -17 -4 -10 -3 6 -10 9 -16 5 -7 -4 -6 1 2 10 17 21 17 21 18 -5z m1508 -15 c19 -20 35 -33 35 -30 0 3 13 -7 28 -21 16 -15 43 -38 62 -52 89 -67 223 -208 266 -283 25 -42 49 -75 54 -72 8 5 23 -32 21 -49 -1 -4 4 -14 10 -22 6 -8 15 -31 19 -52 5 -20 13 -62 19 -92 11 -52 15 -162 8 -205 -6 -31 -30 -109 -37 -120 -4 -5 -6 -23 -3 -40 3 -23 1 -27 -7 -15 -9 13 -12 13 -20 -2 -6 -9 -17 -24 -26 -33 -8 -8 -13 -15 -9 -15 3 0 -6 -12 -20 -27 -14 -15 -25 -34 -25 -42 0 -8 -3 -11 -7 -8 -3 4 -12 -1 -19 -11 -12 -16 -13 -15 -14 4 0 12 7 28 16 35 29 24 96 130 121 192 88 218 -7 510 -238 733 -41 39 -101 89 -134 111 -64 44 -128 107 -138 136 -9 25 -2 21 38 -20z m-2049 -18 c1 -8 -2 -15 -6 -15 -5 0 -8 9 -7 20 1 21 10 18 13 -5z m413 -84 c-5 -35 -4 -68 3 -97 9 -32 9 -48 0 -66 -10 -20 -11 -18 -8 19 3 24 0 43 -6 45 -16 6 -15 88 1 126 8 18 15 31 16 30 2 -2 -1 -27 -6 -57z m1846 -11 c3 -6 -1 -7 -9 -4 -18 7 -21 14 -7 14 6 0 13 -4 16 -10z m-74 -72 c30 -24 75 -64 100 -89 49 -49 129 -160 129 -178 0 -19 -18 -12 -25 9 -3 11 -11 20 -16 20 -5 0 -9 5 -9 12 0 6 -31 42 -69 79 -38 37 -68 69 -65 71 2 3 -7 10 -21 16 -32 15 -34 -2 -3 -35 12 -13 17 -23 12 -23 -20 0 -63 56 -83 108 -11 28 -17 52 -12 52 5 0 33 -19 62 -42z m-1911 -28 c0 -11 -4 -20 -9 -20 -5 0 -7 9 -4 20 3 11 7 20 9 20 2 0 4 -9 4 -20z m-273 -22 c-3 -8 -6 -5 -6 6 -1 11 2 17 5 13 3 -3 4 -12 1 -19z m287 -52 c7 -36 6 -38 -9 -23 -10 11 -13 25 -9 42 8 32 10 30 18 -19z m1920 -48 c14 -18 23 -35 20 -37 -3 -3 -8 -1 -12 5 -4 6 -15 13 -24 17 -9 3 -22 15 -28 26 -18 35 15 26 44 -11z m-1897 -70 c-3 -7 -5 -2 -5 12 0 14 2 19 5 13 2 -7 2 -19 0 -25z m2350 -25 c-3 -10 -5 -4 -5 12 0 17 2 24 5 18 2 -7 2 -21 0 -30z m-368 -12 c27 -38 26 -45 -3 -26 -24 16 -42 55 -26 55 5 0 18 -13 29 -29z m-1618 -56 c0 -86 20 -184 53 -264 31 -77 33 -91 4 -37 -44 84 -60 149 -65 266 -3 63 -2 112 1 109 4 -4 7 -37 7 -74z m1720 22 c-1 -12 -15 -9 -19 4 -3 6 1 10 8 8 6 -3 11 -8 11 -12z m-344 -29 c-3 -7 -5 -2 -5 12 0 14 2 19 5 13 2 -7 2 -19 0 -25z m-1825 -1 c-8 -10 -6 -16 9 -25 10 -7 19 -21 19 -32 0 -11 6 -20 14 -20 20 0 46 -39 39 -58 -5 -11 -2 -14 10 -9 9 3 17 2 17 -3 0 -5 16 -25 35 -46 36 -38 41 -49 26 -58 -13 -8 -117 107 -163 179 -34 55 -36 61 -21 73 22 16 28 15 15 -1z m119 -34 c13 -21 30 -43 39 -50 8 -7 10 -13 4 -13 -15 0 -61 51 -69 78 -10 33 0 27 26 -15z m38 -115 c8 -10 9 -18 3 -18 -6 0 -14 9 -17 20 -3 11 -13 20 -21 20 -8 0 -18 8 -21 18 -4 9 -17 34 -30 54 -50 81 -16 44 86 -94z m121 132 c0 -5 -2 -10 -4 -10 -3 0 -8 5 -11 10 -3 6 -1 10 4 10 6 0 11 -4 11 -10z m1880 -25 c0 -2 -6 -5 -13 -8 -8 -3 -14 1 -14 8 0 7 6 11 14 8 7 -3 13 -6 13 -8z m277 -32 c-3 -10 -5 -2 -5 17 0 19 2 27 5 18 2 -10 2 -26 0 -35z m-348 -28 c0 -18 -1 -17 -14 5 -20 34 -20 60 0 34 8 -10 14 -28 14 -39z m111 19 c0 -8 -5 -12 -10 -9 -6 4 -8 11 -5 16 9 14 15 11 15 -7z m-414 -41 c-10 -49 -18 -98 -19 -110 0 -7 -4 -13 -9 -13 -4 0 -8 -8 -8 -19 0 -10 -9 -30 -20 -44 -11 -14 -20 -29 -20 -34 0 -4 -10 -19 -22 -33 -13 -14 -29 -37 -37 -52 -8 -16 -18 -28 -23 -28 -5 0 -33 -24 -61 -53 -30 -31 -71 -61 -97 -71 -51 -20 -47 -15 32 38 51 34 90 71 169 165 15 17 25 31 23 31 -2 0 9 26 24 58 32 62 58 149 49 158 -5 5 12 33 21 34 2 0 1 -12 -2 -27z m233 -14 c-9 -5 -16 -3 -20 9 -8 22 13 36 25 15 5 -10 4 -18 -5 -24z m-1751 -129 c-2 -8 5 -26 15 -40 23 -33 21 -43 -5 -28 -41 23 -57 40 -51 54 3 8 9 11 14 8 19 -12 7 15 -28 62 l-36 49 47 -45 c25 -24 45 -51 44 -60z m-8 79 c0 -6 -4 -7 -10 -4 -5 3 -10 11 -10 16 0 6 5 7 10 4 6 -3 10 -11 10 -16z m1809 -40 c16 -70 10 -210 -11 -249 -7 -14 -22 -25 -32 -25 -13 0 -22 -12 -31 -43 -15 -50 -25 -181 -14 -188 4 -2 4 -17 0 -32 -5 -15 -4 -38 1 -52 5 -13 6 -21 2 -17 -4 4 -12 2 -19 -3 -9 -7 -11 26 -10 138 2 142 3 150 36 227 31 74 33 87 32 185 0 96 5 119 27 120 3 0 12 -27 19 -61z m368 39 c-3 -8 -6 -5 -6 6 -1 11 2 17 5 13 3 -3 4 -12 1 -19z m-305 -70 c-2 -10 -9 -15 -14 -12 -5 4 -8 15 -5 25 3 11 1 19 -5 19 -5 0 -6 5 -3 11 10 15 33 -21 27 -43z m305 -10 c-2 -13 -4 -5 -4 17 -1 22 1 32 4 23 2 -10 2 -28 0 -40z m-2242 12 c-3 -5 1 -10 9 -10 9 0 16 -4 16 -10 0 -5 -4 -10 -9 -10 -13 0 -32 26 -24 33 10 10 15 8 8 -3z m1752 -62 c-2 -13 -4 -5 -4 17 -1 22 1 32 4 23 2 -10 2 -28 0 -40z m49 -11 c-3 -12 -10 -45 -16 -72 -6 -28 -20 -61 -31 -75 l-19 -25 10 28 c6 16 17 60 26 98 9 38 20 69 26 69 6 0 8 -10 4 -23z m224 1 c0 -4 -4 -8 -9 -8 -6 0 -12 4 -15 8 -3 5 1 9 9 9 8 0 15 -4 15 -9z m225 -8 c3 -5 1 -10 -4 -10 -6 0 -11 5 -11 10 0 6 2 10 4 10 3 0 8 -4 11 -10z m-318 -52 c-5 -29 -11 -68 -12 -87 -1 -24 -10 -40 -29 -53 -32 -24 -32 -24 -2 44 14 31 28 73 32 94 6 38 12 54 18 54 2 0 -1 -24 -7 -52z m-2013 -8 c10 -13 9 -13 -6 -1 -10 7 -18 21 -17 30 0 13 1 14 6 1 3 -8 11 -22 17 -30z m2112 0 c0 -11 -4 -20 -8 -20 -10 0 -29 36 -22 43 11 11 30 -4 30 -23z m-1646 10 c0 -5 -2 -10 -4 -10 -3 0 -8 5 -11 10 -3 6 -1 10 4 10 6 0 11 -4 11 -10z m1301 -37 c-12 -20 -14 -14 -5 12 4 9 9 14 11 11 3 -2 0 -13 -6 -23z m329 -12 c18 -37 18 -42 4 -84 -14 -42 -94 -143 -94 -119 0 6 5 14 10 17 6 4 9 14 8 23 -2 10 4 17 12 17 10 0 20 20 30 55 17 61 15 100 -6 100 -8 0 -14 7 -14 15 0 29 30 15 50 -24z m-1997 -33 c20 -35 47 -76 61 -93 13 -16 26 -34 26 -40 1 -5 10 -21 19 -35 10 -14 22 -32 26 -40 7 -12 6 -13 -7 -3 -30 25 -168 244 -168 268 0 14 11 -1 43 -57z m203 8 c10 -8 15 -18 11 -22 -4 -4 -17 2 -29 14 -25 25 -13 30 18 8z m1428 -42 c-11 -16 -24 -35 -31 -42 -7 -7 -13 -18 -13 -23 0 -5 -7 -9 -15 -9 -22 0 -18 16 13 47 24 25 25 28 8 31 -16 3 -14 7 10 22 37 23 51 10 28 -26z m-1086 -45 c28 -17 59 -37 67 -45 8 -9 15 -12 15 -7 0 4 4 3 8 -3 4 -7 39 -22 77 -34 128 -40 330 -37 417 7 47 23 78 33 78 25 0 -14 -112 -61 -160 -67 -103 -14 -197 -14 -260 1 -124 28 -204 63 -252 107 -15 14 -28 24 -30 22 -2 -1 -21 16 -43 38 -39 39 -39 40 -5 14 19 -15 59 -41 88 -58z m-274 50 c44 -26 45 -30 6 -19 -37 11 -50 19 -50 31 0 13 4 12 44 -12z m-765 -681 c1 -370 1 -679 1 -685 0 -10 195 -13 943 -13 l943 0 17 32 c60 117 82 148 108 148 10 0 33 9 51 20 37 22 48 25 48 10 0 -5 -5 -10 -10 -10 -6 0 -28 -11 -49 -25 -23 -14 -41 -20 -43 -14 -2 6 -16 -12 -31 -40 -16 -28 -40 -65 -54 -81 -14 -17 -22 -34 -18 -38 3 -4 85 -7 180 -7 95 0 177 -3 181 -7 4 -5 -4 -8 -17 -8 -13 0 -283 -1 -599 -1 -316 0 -584 -5 -595 -10 -14 -6 2 -8 50 -7 88 2 115 -6 115 -35 0 -47 3 -47 -366 -51 -192 -3 -356 -5 -364 -5 -92 2 -486 16 -487 17 -7 5 -1 40 11 62 13 23 12 26 -15 42 l-29 18 0 192 c-2 646 9 1168 25 1168 2 0 4 -303 4 -672z m2200 645 c-20 -53 -157 -205 -187 -209 -10 -1 -26 -5 -37 -9 -13 -4 -9 2 10 16 61 47 156 144 183 186 31 49 47 57 31 16z m-2059 -39 c0 -8 -5 -12 -10 -9 -6 4 -8 11 -5 16 9 14 15 11 15 -7z m2580 -39 c-6 -30 -8 -33 -9 -13 -1 25 8 62 14 56 2 -2 -1 -21 -5 -43z m-2209 3 c11 -21 11 -22 -4 -9 -10 7 -17 17 -17 22 0 15 9 10 21 -13z m-344 -8 c3 -10 2 -11 -4 -4 -4 6 -15 14 -23 17 -11 5 -9 6 4 4 11 -1 21 -9 23 -17z m638 10 c3 -6 -1 -7 -9 -4 -18 7 -21 14 -7 14 6 0 13 -4 16 -10z m64 -14 c9 -10 9 -16 1 -21 -6 -4 -12 -5 -13 -4 -2 2 -9 12 -16 22 -11 14 -11 17 2 17 8 0 20 -6 26 -14z m1323 -104 c-3 -88 -16 -152 -33 -152 -5 0 -6 19 -3 43 5 32 2 47 -10 59 -21 21 -20 30 5 73 12 20 19 39 15 42 -3 3 -1 12 6 20 18 22 22 7 20 -85z m-1252 58 c-8 -5 -6 -10 7 -15 10 -5 21 -8 24 -7 3 0 6 -6 6 -13 0 -9 -4 -11 -11 -6 -6 5 -19 7 -28 6 -25 -4 -44 21 -28 39 6 8 18 12 27 9 10 -4 11 -8 3 -13z m1050 16 c0 -2 -7 -6 -15 -10 -8 -3 -15 -1 -15 4 0 6 7 10 15 10 8 0 15 -2 15 -4z m-1911 -149 c25 -68 38 -79 64 -53 9 9 18 11 23 6 5 -5 21 -11 34 -13 16 -2 30 -15 41 -37 l16 -33 7 26 c8 33 20 33 108 5 62 -20 68 -24 68 -49 0 -25 4 -28 50 -34 27 -4 54 -3 61 1 8 4 9 3 5 -4 -4 -7 -1 -12 10 -12 12 0 15 -7 12 -30 -5 -33 -5 -33 41 -24 27 6 31 10 31 40 0 23 5 34 14 34 8 0 23 3 33 6 13 4 14 3 5 -4 -9 -6 11 -13 65 -22 97 -16 113 -24 113 -57 0 -22 2 -24 15 -13 9 7 17 11 19 9 1 -2 10 -15 19 -29 16 -23 17 -24 17 -3 0 12 -6 23 -12 26 -10 3 -10 7 -1 17 9 9 14 8 22 -9 9 -16 18 -20 36 -15 14 3 64 0 111 -7 l86 -13 -6 -37 -6 -38 42 18 43 18 3 70 c4 106 13 107 191 22 79 -38 146 -69 147 -69 2 0 4 22 4 48 0 48 1 49 38 60 20 5 57 13 82 17 25 3 57 8 73 11 24 5 27 3 27 -20 0 -31 5 -32 55 -6 64 33 157 21 195 -25 12 -14 8 -14 -20 4 -19 11 -42 21 -50 21 -8 0 -1 -9 16 -19 44 -27 73 -68 80 -113 4 -22 10 -36 15 -31 4 4 -6 59 -22 122 -17 62 -28 115 -26 118 7 7 171 63 184 63 7 0 13 -6 13 -12 1 -7 41 -101 89 -208 82 -182 90 -195 113 -192 21 3 31 -9 77 -88 47 -79 56 -89 69 -78 9 7 6 -2 -7 -20 -24 -35 -117 -86 -211 -117 -70 -23 -210 -25 -261 -3 -45 20 -106 73 -125 109 -7 15 -14 44 -14 65 0 30 -3 35 -17 29 -28 -11 -127 -23 -142 -17 -9 3 -12 0 -9 -9 3 -8 14 -13 25 -11 12 2 21 -3 20 -10 -2 -46 4 -98 11 -98 5 0 9 21 11 47 3 67 11 67 11 0 0 -70 -3 -72 -159 -122 -83 -27 -116 -34 -121 -25 -6 9 -12 9 -28 -1 -18 -11 -27 -7 -92 51 -52 46 -74 60 -82 52 -8 -8 -8 -15 0 -25 9 -10 -10 -37 -86 -123 -54 -60 -104 -110 -112 -112 -14 -2 -118 144 -109 152 2 2 29 16 59 31 l55 28 -30 10 c-16 5 -39 16 -50 23 -26 18 -35 18 -35 -2 0 -35 -41 -53 -122 -54 -47 0 -78 -4 -78 -10 0 -7 -32 -10 -87 -8 l-88 3 -17 95 c-9 52 -17 98 -17 102 -1 4 -17 0 -36 -8 -19 -7 -44 -14 -55 -14 -18 0 -20 -6 -20 -54 0 -46 -4 -56 -24 -70 -23 -15 -33 -14 -138 10 -71 16 -116 31 -122 41 -6 12 -10 13 -16 3 -6 -10 -29 -8 -106 12 -81 19 -100 28 -102 43 -1 11 34 128 78 259 44 132 79 241 76 243 -2 2 -15 -2 -29 -8 -21 -9 -30 -9 -41 0 -8 7 -20 10 -26 6 -6 -4 -15 7 -21 24 -6 17 -17 31 -24 31 -7 0 -18 14 -24 30 -5 17 -8 30 -5 30 2 0 -4 17 -14 38 -11 20 -22 60 -25 87 l-6 50 12 -40 c7 -22 23 -70 36 -108z m1861 108 c-7 -8 -19 -15 -26 -15 -8 0 -14 -4 -14 -10 0 -10 -81 -60 -98 -60 -25 0 -9 16 41 40 29 14 51 30 50 37 -2 7 3 10 11 7 7 -3 19 2 26 11 7 8 15 13 18 10 3 -2 -1 -11 -8 -20z m200 10 c0 -2 -10 -10 -22 -16 -21 -11 -22 -11 -9 4 13 16 31 23 31 12z m577 -248 c-1 -45 -3 -5 -3 88 0 94 2 130 3 82 2 -48 2 -125 0 -170z m-2477 189 c0 -18 -3 -17 -20 9 -26 39 -26 53 0 30 11 -10 20 -28 20 -39z m630 19 c14 -19 14 -19 -2 -6 -10 7 -18 18 -18 24 0 6 1 8 3 6 1 -2 9 -13 17 -24z m176 -16 c3 -5 14 -9 25 -9 10 0 19 -5 19 -10 0 -6 -16 -4 -37 5 -44 19 -66 37 -34 28 12 -3 24 -9 27 -14z m1311 -1 c-3 -8 -6 -5 -6 6 -1 11 2 17 5 13 3 -3 4 -12 1 -19z m-1749 -13 c-3 -3 -9 2 -12 12 -6 14 -5 15 5 6 7 -7 10 -15 7 -18z m73 -2 c13 -16 12 -17 -3 -4 -10 7 -18 15 -18 17 0 8 8 3 21 -13z m499 -3 c0 -5 -5 -10 -11 -10 -5 0 -7 5 -4 10 3 6 8 10 11 10 2 0 4 -4 4 -10z m-916 -16 c3 -8 2 -12 -4 -9 -6 3 -10 10 -10 16 0 14 7 11 14 -7z m1841 -34 c-11 -12 -16 -29 -13 -45 4 -19 2 -23 -7 -15 -10 8 -18 4 -34 -16 -11 -14 -18 -30 -16 -34 3 -5 1 -11 -5 -15 -6 -4 -10 5 -10 20 0 33 93 166 98 140 2 -9 -4 -25 -13 -35z m285 40 c0 -5 -5 -10 -11 -10 -5 0 -7 5 -4 10 3 6 8 10 11 10 2 0 4 -4 4 -10z m-1940 -98 c0 -10 -54 36 -72 62 -18 25 -13 22 25 -14 26 -25 47 -46 47 -48z m280 76 c0 -14 22 -36 87 -87 39 -31 47 -51 22 -51 -14 0 -138 133 -133 142 8 12 24 9 24 -4z m473 6 c4 -4 34 -8 68 -9 39 -2 65 -8 70 -16 12 -20 11 -26 -6 -26 -8 0 -15 4 -15 9 0 4 -7 8 -15 8 -8 0 -15 -4 -15 -9 0 -5 -3 -17 -6 -26 -4 -10 -2 -15 6 -13 7 2 15 -3 17 -9 3 -8 -4 -13 -16 -13 -12 0 -20 3 -20 8 3 19 -2 33 -10 28 -5 -3 -14 1 -21 9 -11 13 -8 15 16 16 28 1 28 1 -6 10 -19 5 -41 11 -48 12 -7 2 -18 9 -24 15 -9 9 -9 12 3 12 9 0 19 -3 22 -6z m561 -18 c-28 -20 -134 -66 -148 -65 -7 0 -6 3 2 6 6 2 10 9 6 14 -3 5 5 9 18 9 18 0 20 2 8 10 -11 7 -6 10 20 11 49 1 71 6 83 18 6 6 16 11 21 11 6 0 1 -6 -10 -14z m604 -5 c-7 -11 -16 -17 -21 -14 -4 3 0 11 10 19 24 18 25 17 11 -5z m-1474 -33 c30 -25 10 -22 -26 3 -23 17 -27 24 -16 30 8 5 15 4 17 -3 2 -7 14 -20 25 -30z m986 32 c0 -5 -5 -10 -12 -10 -6 0 -19 -7 -28 -15 -10 -9 -27 -18 -39 -20 -13 -2 -32 -7 -44 -10 -12 -4 7 9 43 28 72 39 80 41 80 27z m-1154 -67 c26 -32 39 -50 29 -41 -17 16 -19 16 -31 0 -11 -14 -12 -13 -7 8 3 18 -3 34 -21 53 -25 26 -31 37 -22 37 2 0 25 -26 52 -57z m815 34 c-10 -9 -11 -8 -5 6 3 10 9 15 12 12 3 -3 0 -11 -7 -18z m783 -63 c42 -85 96 -214 96 -227 -1 -18 -39 58 -81 162 -22 51 -44 100 -50 107 -6 8 -7 14 -2 14 5 0 22 -25 37 -56z m-606 23 c-16 -15 -89 -35 -108 -29 -13 5 78 39 108 41 11 1 11 -1 0 -12z m209 -19 c-3 -8 -6 -5 -6 6 -1 11 2 17 5 13 3 -3 4 -12 1 -19z m-909 -28 c18 -16 37 -30 43 -30 5 0 9 -5 9 -11 0 -18 -42 -5 -54 16 -6 11 -20 28 -30 37 -10 10 -15 18 -10 18 5 0 24 -13 42 -30z m417 20 c3 -5 1 -10 -4 -10 -6 0 -11 5 -11 10 0 6 2 10 4 10 3 0 8 -4 11 -10z m-100 -18 c-3 -3 -11 0 -18 7 -9 10 -8 11 6 5 10 -3 15 -9 12 -12z m665 3 c0 -8 -10 -19 -21 -26 -21 -11 -21 -11 -3 15 22 30 24 31 24 11z m-820 -5 c0 -5 -15 -9 -32 -9 l-33 1 30 8 c17 4 31 8 33 9 1 0 2 -3 2 -9z m710 -9 c0 -5 -6 -14 -14 -20 -12 -10 -14 -9 -11 6 2 10 4 19 4 21 2 6 21 1 21 -7z m570 -76 c-7 -25 -10 -51 -7 -59 4 -9 1 -18 -5 -22 -13 -8 -6 115 8 137 14 24 17 -10 4 -56z m-1850 15 c0 -5 -4 -10 -10 -10 -5 0 -10 5 -10 10 0 6 5 10 10 10 6 0 10 -4 10 -10z m296 -15 c11 -27 -1 -30 -23 -7 -22 21 -22 22 -2 22 11 0 22 -7 25 -15z m-309 -27 c-3 -8 -6 -5 -6 6 -1 11 2 17 5 13 3 -3 4 -12 1 -19z m2120 -130 c-3 -7 -5 -2 -5 12 0 14 2 19 5 13 2 -7 2 -19 0 -25z m-2607 -8 c0 -5 -2 -10 -4 -10 -3 0 -8 5 -11 10 -3 6 -1 10 4 10 6 0 11 -4 11 -10z m2611 -57 c-4 -28 -6 -32 -9 -15 -3 22 3 52 11 52 1 0 1 -17 -2 -37z m-107 -106 c7 -6 6 -7 -4 -4 -8 2 -16 12 -17 23 -2 13 -1 15 4 4 3 -8 11 -19 17 -23z m103 -149 c-3 -8 -6 -5 -6 6 -1 11 2 17 5 13 3 -3 4 -12 1 -19z m-751 -141 c-58 -120 -124 -232 -133 -224 -2 3 1 15 7 27 7 12 10 30 7 41 -3 11 3 23 18 33 40 27 56 47 50 67 -5 13 -2 19 10 19 17 0 38 43 24 48 -5 2 0 11 10 20 11 10 21 26 23 37 3 18 29 54 36 50 2 -2 -22 -55 -52 -118z m751 76 c-3 -10 -5 -2 -5 17 0 19 2 27 5 18 2 -10 2 -26 0 -35z m-661 -40 c-11 -11 -17 4 -9 23 7 18 8 18 11 1 2 -10 1 -21 -2 -24z m-576 9 c0 -14 -11 -21 -26 -15 -8 3 -11 9 -8 14 7 11 34 12 34 1z m-760 -16 c0 -3 -4 -8 -10 -11 -5 -3 -10 -1 -10 4 0 6 5 11 10 11 6 0 10 -2 10 -4z m-40 -16 c-19 -13 -30 -13 -30 0 0 6 10 10 23 10 18 0 19 -2 7 -10z m-567 -25 c-7 -21 -12 -19 -10 4 0 11 5 18 9 15 4 -3 5 -11 1 -19z m487 9 c0 -2 -9 -4 -20 -4 -11 0 -20 4 -20 9 0 5 9 7 20 4 11 -3 20 -7 20 -9z m1724 -41 c-9 -21 -18 -44 -20 -51 -4 -21 -14 -27 -14 -10 0 9 8 33 17 54 9 22 18 42 19 47 5 20 6 21 10 10 3 -6 -3 -28 -12 -50z m-301 23 c-10 -13 -19 -23 -21 -21 -7 6 19 45 29 45 5 0 2 -11 -8 -24z m694 -8 c-3 -8 -6 -5 -6 6 -1 11 2 17 5 13 3 -3 4 -12 1 -19z m-2487 -87 c19 -17 29 -31 23 -31 -6 0 -18 7 -26 15 -8 8 -17 11 -21 8 -3 -4 -6 1 -6 11 0 11 -5 15 -12 10 -7 -4 -10 -4 -6 0 3 4 -9 23 -28 41 -46 47 -43 58 4 13 20 -20 53 -50 72 -67z m493 84 c8 -8 17 -12 19 -9 3 2 17 -7 31 -20 14 -13 27 -20 29 -14 2 5 11 6 21 2 10 -3 16 -12 14 -18 -5 -14 -39 -9 -52 8 -6 7 -20 16 -31 20 -26 8 -72 46 -56 46 6 0 17 -7 25 -15z m-57 -22 c-7 -7 -26 7 -26 19 0 6 6 6 15 -2 9 -7 13 -15 11 -17z m-89 11 c-3 -3 -12 -4 -19 -1 -8 3 -5 6 6 6 11 1 17 -2 13 -5z m-60 -10 c-3 -3 -12 -4 -19 -1 -8 3 -5 6 6 6 11 1 17 -2 13 -5z m1073 -48 c-6 -8 -18 -12 -27 -9 -12 5 -12 7 -1 14 7 5 19 9 27 9 11 0 11 -3 1 -14z m-667 -11 c-3 -13 -29 -18 -59 -11 -39 10 -27 24 19 23 23 -1 41 -6 40 -12z m217 -5 c0 -5 -4 -10 -10 -10 -5 0 -10 5 -10 10 0 6 5 10 10 10 6 0 10 -4 10 -10z m690 -20 c0 -5 -10 -10 -22 -9 -22 0 -22 1 -3 9 11 5 21 9 23 9 1 1 2 -3 2 -9z m476 -2 c4 -6 3 -8 -3 -5 -6 4 -14 0 -17 -9 -4 -9 -9 -15 -11 -12 -8 7 5 38 15 38 5 0 12 -5 16 -12z m-1206 -8 c22 -6 23 -8 6 -15 -12 -5 -21 -3 -27 6 -7 11 -11 11 -17 1 -10 -15 -71 -34 -85 -25 -13 8 52 42 78 42 11 -1 31 -4 45 -9z m1510 -1 c0 -5 -4 -7 -10 -4 -5 3 -10 1 -10 -6 0 -7 -3 -10 -6 -6 -8 7 4 27 17 27 5 0 9 -5 9 -11z m107 -11 c-3 -8 -6 -5 -6 6 -1 11 2 17 5 13 3 -3 4 -12 1 -19z m-964 -3 c-3 -9 -8 -14 -10 -11 -3 3 -2 9 2 15 9 16 15 13 8 -4z m-1452 -13 c13 -11 18 -21 12 -25 -6 -4 -21 5 -33 18 -27 29 -13 33 21 7z m902 1 c-7 -2 -19 -2 -25 0 -7 3 -2 5 12 5 14 0 19 -2 13 -5z m1068 -16 c-6 -8 -9 -16 -6 -19 3 -3 -1 -11 -10 -18 -22 -18 -20 7 2 32 19 21 31 25 14 5z m306 7 c-3 -3 -12 -4 -19 -1 -8 3 -5 6 6 6 11 1 17 -2 13 -5z m63 -34 c-6 -11 -13 -20 -16 -20 -2 0 0 9 6 20 6 11 13 20 16 20 2 0 0 -9 -6 -20z m-100 6 c0 -2 -9 -6 -20 -9 -11 -3 -18 -1 -14 4 5 9 34 13 34 5z m-60 -40 c0 -2 -9 -6 -20 -9 -11 -3 -18 -1 -14 4 5 9 34 13 34 5z m208 -10 c3 -3 -42 -6 -99 -5 -66 0 -97 3 -84 9 21 9 173 5 183 -4z m-360 -3 c-10 -2 -26 -2 -35 0 -10 3 -2 5 17 5 19 0 27 -2 18 -5z m65 0 c-7 -2 -21 -2 -30 0 -10 3 -4 5 12 5 17 0 24 -2 18 -5z"/> <path d="M1546 3752 c-76 -86 -83 -98 -70 -113 13 -14 10 -19 -23 -42 l-37 -26 -72 65 -72 64 -21 -34 c-12 -18 -21 -38 -21 -45 0 -6 -3 -11 -8 -11 -4 0 -6 20 -4 44 l4 44 -116 -36 -116 -37 0 -57 c0 -55 1 -58 25 -58 21 0 25 -5 25 -28 0 -28 0 -29 -53 -24 -35 3 -66 -1 -91 -12 -49 -20 -46 -21 -46 12 0 82 -68 169 -149 192 -91 25 -226 7 -336 -45 -119 -57 -115 -47 -52 -151 47 -77 57 -89 79 -86 23 2 31 -10 113 -195 48 -109 91 -202 96 -207 4 -4 44 4 89 19 73 24 81 29 76 49 -46 186 -49 206 -36 221 20 24 30 18 30 -18 0 -74 77 -147 156 -147 39 0 112 25 136 47 17 15 18 14 18 -22 l0 -37 58 7 c103 12 99 9 105 82 4 36 8 68 11 70 2 2 76 -32 165 -76 88 -45 163 -81 166 -81 3 0 5 35 5 78 l0 79 58 17 c31 9 63 20 71 23 10 4 12 -3 6 -35 -7 -46 -14 -42 99 -62 79 -13 74 -14 84 21 l8 31 19 -41 c23 -48 32 -51 41 -14 7 25 8 25 15 8 4 -11 8 -32 8 -47 1 -23 6 -28 39 -34 20 -3 67 -12 104 -18 l66 -13 -5 32 c-5 31 -4 32 35 39 22 3 48 9 57 12 14 6 15 2 10 -29 -8 -39 -11 -37 93 -52 38 -6 42 -9 42 -35 0 -26 5 -30 71 -50 39 -12 72 -20 74 -18 5 6 177 533 179 547 1 9 -29 21 -92 36 l-93 22 -6 -29 c-8 -38 -23 -46 -23 -11 0 15 -4 33 -8 39 -4 6 -52 21 -107 33 -55 12 -106 24 -112 26 -10 3 -13 -13 -13 -60 0 -58 2 -65 20 -65 12 0 20 -7 20 -16 0 -12 -5 -14 -17 -8 -29 14 -116 9 -151 -8 -17 -9 -34 -13 -36 -10 -2 4 -9 43 -16 87 -20 136 -12 125 -95 125 -47 0 -75 -4 -77 -12 -2 -6 -37 -13 -85 -16 l-81 -4 -7 -50 -7 -50 -22 20 c-29 27 -78 51 -123 60 l-38 8 55 32 c30 17 61 35 69 39 11 7 4 23 -32 76 l-46 67 -85 -98z m114 -2 l21 -29 -70 -36 c-75 -37 -91 -42 -91 -24 0 17 101 130 111 124 4 -3 17 -19 29 -35z m408 -117 c5 -10 15 -57 22 -106 13 -84 12 -89 -9 -132 -12 -25 -25 -60 -28 -78 -7 -47 27 -122 66 -145 29 -16 38 -32 26 -44 -9 -9 -108 11 -116 24 -4 6 -10 39 -14 72 -11 101 -15 108 -37 57 -10 -24 -21 -42 -23 -39 -3 3 -18 31 -33 63 l-29 59 -12 -78 -13 -78 -36 7 c-75 13 -75 13 -69 62 3 27 14 54 27 69 22 22 22 25 7 42 -16 17 -16 25 -2 103 26 142 17 129 84 129 l60 0 6 -55 c9 -66 20 -64 28 6 4 28 12 57 18 65 16 20 66 18 77 -3z m-886 -60 l3 -68 48 68 49 67 26 -19 c15 -11 40 -33 57 -50 l29 -31 -72 -73 -72 -72 63 -25 c41 -16 73 -37 95 -62 22 -25 49 -42 80 -51 l47 -14 3 -52 3 -52 -73 36 c-40 20 -117 58 -170 85 l-98 49 0 -88 0 -89 -40 -7 c-21 -4 -44 -4 -50 0 -15 9 -12 67 6 111 20 48 14 116 -14 154 -14 18 -23 51 -28 99 -6 60 -9 71 -25 71 -12 0 -19 7 -19 20 0 15 14 24 63 39 34 11 67 20 74 20 8 1 13 -22 15 -66z m-462 24 c118 -57 118 -182 1 -296 l-50 -48 25 -94 c13 -52 24 -101 24 -110 0 -14 -56 -39 -88 -39 -5 0 -52 94 -103 210 -62 139 -98 208 -106 205 -7 -3 -19 -7 -26 -10 -12 -5 -77 91 -77 114 0 23 149 82 235 94 51 7 118 -4 165 -26z m935 -16 c74 -33 74 -41 -1 -120 -69 -74 -70 -87 -3 -49 l39 22 35 -34 c42 -40 38 -47 -48 -90 -67 -34 -135 -39 -190 -16 -97 41 -119 168 -43 244 58 59 140 76 211 43z m774 -6 l68 -16 23 -112 24 -112 21 90 c11 50 24 95 28 101 7 12 97 -3 112 -18 7 -7 -141 -466 -156 -482 -5 -6 -24 -5 -49 3 l-40 12 -1 127 -1 127 -17 -87 c-9 -48 -19 -90 -23 -93 -4 -4 -25 -4 -47 0 -38 6 -41 9 -41 39 0 22 8 40 25 56 58 54 70 166 25 230 -17 24 -21 39 -16 65 6 28 4 35 -9 35 -9 0 -15 9 -15 25 0 29 1 30 89 10z m-675 -104 c-5 -25 -9 -29 -20 -20 -11 9 -11 15 3 35 20 31 25 26 17 -15z m567 -24 c64 -43 76 -111 34 -184 -48 -80 -161 -110 -224 -58 -64 55 -61 142 8 208 62 59 127 71 182 34z m-961 -27 c0 -32 -6 -36 -30 -20 -12 7 -12 12 4 29 25 27 26 27 26 -9z m-304 -23 c87 -80 28 -236 -101 -265 -112 -25 -193 72 -151 182 28 73 90 116 169 116 40 0 53 -5 83 -33z"/> <path d="M1578 3721 c-26 -31 -45 -57 -44 -58 2 -3 113 54 125 63 2 2 -5 14 -16 27 l-19 25 -46 -57z"/> <path d="M1997 3623 c-3 -5 -10 -40 -17 -80 -7 -42 -18 -77 -28 -85 -10 -8 -13 -9 -9 -1 4 6 2 43 -5 82 l-12 71 -47 0 c-55 0 -52 4 -70 -117 -11 -76 -11 -84 6 -103 18 -20 18 -21 -9 -49 -15 -15 -29 -44 -33 -64 -6 -38 -8 -36 68 -51 14 -3 19 11 29 75 7 44 17 79 22 79 5 0 21 -28 37 -62 l28 -63 18 48 c15 41 35 63 35 40 0 -18 29 -185 33 -189 2 -2 26 -7 53 -11 l48 -6 -38 34 c-70 61 -83 132 -41 215 24 46 25 53 15 124 -17 120 -17 120 -50 120 -16 0 -31 -3 -33 -7z"/> <path d="M1103 3608 c-35 -10 -63 -23 -63 -29 0 -6 9 -8 19 -4 17 5 20 -2 26 -72 5 -53 14 -87 28 -107 28 -40 34 -115 13 -170 -9 -24 -14 -55 -11 -68 5 -20 11 -23 41 -20 l34 4 0 89 c0 49 2 89 5 89 3 0 77 -36 165 -80 88 -44 162 -80 165 -80 3 0 5 15 5 34 0 31 -4 36 -37 46 -21 7 -42 16 -47 21 -18 16 -29 9 -15 -8 13 -16 12 -17 -4 -4 -9 8 -15 16 -13 19 3 2 -7 20 -21 39 -18 23 -32 33 -45 30 -10 -3 -16 -2 -13 3 7 11 -82 43 -96 35 -23 -15 10 31 71 98 l63 68 -39 40 c-21 21 -41 39 -46 39 -4 0 -22 -21 -39 -47 -18 -26 -45 -59 -59 -74 l-26 -28 4 63 c6 97 7 95 -65 74z m217 -33 c13 -14 21 -25 18 -25 -2 0 -15 11 -28 25 -13 14 -21 25 -18 25 2 0 15 -11 28 -25z"/> <path d="M470 3591 c-30 -10 -74 -28 -98 -40 -41 -21 -43 -23 -29 -44 8 -12 22 -37 31 -55 16 -31 17 -32 41 -16 23 15 24 15 45 -33 133 -300 174 -384 187 -378 8 3 26 8 40 11 19 5 23 11 19 28 -3 11 -6 27 -6 34 0 7 -5 10 -12 6 -7 -5 -8 -3 -4 5 5 7 0 43 -10 81 l-18 69 48 42 c52 46 82 97 92 156 8 50 -25 100 -86 131 -55 28 -159 29 -240 3z m243 -122 c9 -12 17 -37 17 -57 0 -28 -8 -43 -40 -74 -45 -42 -60 -47 -60 -20 0 9 -9 46 -20 80 -25 79 -25 81 3 92 32 14 79 3 100 -21z"/> <path d="M607 3473 c-4 -8 32 -142 41 -153 2 -3 19 12 38 32 39 43 45 85 16 111 -19 17 -87 24 -95 10z m76 -34 c11 -17 2 -69 -12 -69 -10 0 -31 54 -31 77 0 19 30 13 43 -8z"/> <path d="M654 3434 c3 -8 6 -22 6 -30 0 -8 5 -14 10 -14 17 0 11 47 -6 54 -12 5 -15 2 -10 -10z"/> <path d="M1550 3580 c-95 -18 -146 -78 -137 -163 9 -93 92 -142 201 -118 29 6 69 23 90 37 l38 26 -28 29 c-26 27 -29 28 -52 13 -13 -8 -41 -22 -63 -29 -39 -14 -39 -14 -28 8 6 12 40 52 76 88 l65 66 -34 20 c-40 25 -82 32 -128 23z m69 -64 c12 -12 5 -24 -45 -80 -53 -60 -60 -64 -75 -50 -41 37 -30 112 20 139 29 17 78 12 100 -9z"/> <path d="M1544 3522 c-50 -7 -77 -84 -42 -118 14 -14 20 -10 62 40 26 30 45 59 42 64 -7 12 -35 19 -62 14z m17 -50 c-11 -16 -27 -35 -36 -42 -13 -11 -15 -8 -15 17 0 35 16 53 48 53 l23 0 -20 -28z"/> <path d="M1530 3475 c-20 -24 -6 -28 15 -5 10 11 13 20 8 20 -6 0 -16 -7 -23 -15z"/> <path d="M2350 3565 c0 -7 7 -16 16 -19 12 -5 15 -16 12 -43 -3 -28 2 -46 20 -73 20 -30 23 -44 20 -95 -3 -49 -11 -70 -41 -115 -47 -70 -47 -86 -1 -95 20 -3 37 -5 38 -3 1 2 10 50 19 107 17 100 22 119 31 110 3 -2 6 -68 7 -146 l3 -143 34 -11 c18 -6 34 -9 35 -7 4 6 149 453 151 462 1 10 -82 31 -91 23 -2 -3 -11 -34 -19 -68 -26 -113 -35 -140 -44 -134 -4 3 -10 2 -13 -2 -2 -5 -2 -2 0 6 3 12 -35 221 -41 228 -1 1 -32 9 -69 17 -54 11 -67 11 -67 1z"/> <path d="M2173 3429 c-115 -74 -89 -239 37 -239 71 0 129 46 152 122 12 42 2 93 -19 93 -15 0 -28 13 -28 28 0 7 -21 13 -55 15 -42 2 -63 -3 -87 -19z m58 -16 c-20 -17 -21 -19 -6 -40 24 -34 64 -28 71 10 1 4 2 10 3 15 1 4 6 0 11 -9 16 -27 -7 -76 -41 -88 -55 -19 -103 15 -97 71 2 26 10 37 37 50 41 21 53 16 22 -9z m-54 -105 c9 -10 24 -18 35 -18 10 0 18 -5 18 -11 0 -13 -39 -2 -62 19 -11 9 -17 28 -17 46 2 27 2 28 6 6 3 -14 12 -33 20 -42z"/> <path d="M2186 3393 c-13 -44 13 -83 55 -83 15 0 35 7 43 16 19 18 21 28 5 18 -19 -11 -80 -14 -73 -3 3 6 0 16 -6 24 -7 8 -10 22 -6 30 3 8 1 15 -4 15 -5 0 -11 -8 -14 -17z"/> <path d="M2325 3420 c3 -5 8 -10 11 -10 2 0 4 5 4 10 0 6 -5 10 -11 10 -5 0 -7 -4 -4 -10z"/> <path d="M1335 3421 c-3 -5 -1 -12 5 -16 5 -3 10 1 10 9 0 18 -6 21 -15 7z"/> <path d="M905 3406 c-45 -19 -92 -78 -100 -124 -23 -138 143 -195 239 -82 101 120 2 267 -139 206z m47 -22 c-29 -20 -28 -40 2 -59 19 -13 29 -14 45 -5 12 6 21 15 21 21 0 6 -5 7 -12 3 -7 -4 -8 -3 -4 4 13 22 26 12 26 -20 0 -17 -7 -40 -17 -50 -33 -37 -117 -14 -126 35 -4 20 -4 19 -6 -4 -1 -31 17 -49 62 -59 32 -8 32 -8 4 -9 -35 -1 -63 13 -77 39 -21 40 38 118 90 120 9 0 7 -5 -8 -16z m99 -11 c13 -16 12 -17 -3 -4 -10 7 -18 15 -18 17 0 8 8 3 21 -13z"/> <path d="M906 3354 c-24 -63 53 -115 97 -66 23 25 21 35 -3 20 -17 -11 -26 -10 -50 4 -21 12 -30 13 -34 5 -2 -7 -2 3 1 21 6 34 -1 43 -11 16z"/> <path d="M1450 3630 c0 -5 5 -10 11 -10 5 0 7 5 4 10 -3 6 -8 10 -11 10 -2 0 -4 -4 -4 -10z"/> <path d="M1752 3600 c0 -14 2 -19 5 -12 2 6 2 18 0 25 -3 6 -5 1 -5 -13z"/> <path d="M2278 3603 c-5 -27 -3 -93 4 -93 4 0 8 23 8 50 0 28 -2 50 -5 50 -3 0 -6 -3 -7 -7z"/> <path d="M1006 3492 c-3 -6 -1 -14 5 -17 14 -9 20 -2 10 14 -6 8 -11 9 -15 3z"/> <path d="M1692 3235 c0 -16 2 -22 5 -12 2 9 2 23 0 30 -3 6 -5 -1 -5 -18z"/> <path d="M1250 3210 c0 -5 7 -10 15 -10 8 0 71 -29 142 -65 70 -36 132 -64 137 -62 9 3 -276 147 -290 147 -2 0 -4 -4 -4 -10z"/> <path d="M1690 3190 c0 -5 5 -10 11 -10 5 0 7 5 4 10 -3 6 -8 10 -11 10 -2 0 -4 -4 -4 -10z"/> <path d="M1040 3106 c0 -8 5 -18 10 -21 6 -3 10 3 10 14 0 12 -4 21 -10 21 -5 0 -10 -6 -10 -14z"/> <path d="M2700 2998 c0 -7 5 -20 10 -28 8 -12 10 -9 10 13 0 15 -4 27 -10 27 -5 0 -10 -6 -10 -12z"/> <path d="M1480 2780 c-36 -4 -75 -10 -87 -14 -12 -4 -30 -9 -42 -11 -11 -2 -49 -17 -85 -34 -134 -62 -257 -177 -301 -281 -8 -19 -24 -52 -34 -72 -22 -43 -20 -46 18 -19 14 11 49 27 77 36 37 12 55 24 63 43 25 54 73 102 133 131 69 35 122 39 174 15 47 -23 71 -56 84 -118 l11 -54 62 -6 c243 -27 514 -126 611 -223 35 -36 49 -36 22 0 -8 10 -12 34 -11 53 4 45 -31 152 -78 237 -35 61 -145 187 -164 187 -5 0 -20 10 -34 23 -34 30 -59 44 -122 67 -113 41 -188 51 -297 40z m13 -255 c-3 -9 -8 -14 -10 -11 -3 3 -2 9 2 15 9 16 15 13 8 -4z m27 -46 c0 -5 -4 -9 -8 -9 -5 0 -9 7 -9 15 0 8 4 12 9 9 4 -3 8 -9 8 -15z m29 -32 c6 -8 8 -17 4 -20 -11 -12 -21 -7 -26 13 -6 23 5 26 22 7z m51 -27 c0 -5 -5 -10 -11 -10 -5 0 -7 5 -4 10 3 6 8 10 11 10 2 0 4 -4 4 -10z m80 -22 c0 -6 -6 -5 -15 2 -8 7 -15 14 -15 16 0 2 7 1 15 -2 8 -4 15 -11 15 -16z m63 -5 c-7 -2 -19 -2 -25 0 -7 3 -2 5 12 5 14 0 19 -2 13 -5z m337 -123 c0 -5 -4 -10 -9 -10 -6 0 -13 5 -16 10 -3 6 1 10 9 10 9 0 16 -4 16 -10z"/> <path d="M1290 2560 c19 -13 30 -13 30 0 0 6 -10 10 -22 10 -19 0 -20 -2 -8 -10z"/> <path d="M1330 2556 c0 -7 -25 -20 -55 -30 -62 -19 -84 -39 -33 -30 18 4 35 7 38 6 39 0 50 -4 45 -12 -4 -6 -9 -8 -13 -6 -4 2 -28 1 -54 -3 -59 -10 -74 11 -33 46 41 36 12 27 -32 -9 -42 -35 -83 -91 -83 -114 0 -8 -7 -14 -15 -14 -8 0 -15 -7 -15 -15 0 -21 9 -19 31 9 38 49 84 68 174 73 l84 4 15 -29 c8 -16 12 -32 9 -36 -4 -4 -8 -38 -8 -76 -2 -57 -7 -76 -28 -109 -29 -44 -90 -81 -132 -81 -32 0 -82 25 -114 57 -31 31 -38 22 -15 -18 29 -49 67 -72 127 -77 80 -6 150 33 192 109 8 15 11 29 8 33 -4 3 1 6 10 6 9 0 17 5 17 10 0 5 -5 9 -12 7 -16 -3 -29 81 -14 91 6 4 15 7 20 7 5 0 11 7 13 15 3 9 1 11 -4 5 -13 -16 -40 -16 -47 0 -3 8 -1 15 4 15 6 0 10 12 10 28 l0 27 32 -35 c20 -22 29 -28 24 -15 -4 11 -10 34 -13 50 -7 38 -27 78 -47 94 -23 20 -86 32 -86 17z"/> <path d="M1183 2409 c-30 -15 -48 -33 -62 -63 -25 -50 -26 -77 -6 -116 46 -89 175 -78 226 20 35 65 15 135 -47 165 -42 20 -61 19 -111 -6z m88 -26 c12 -16 12 -17 -1 -7 -8 7 -24 14 -35 17 -19 4 -19 5 1 6 12 0 28 -7 35 -16z m-16 -23 c-4 -6 -11 -8 -16 -5 -5 4 -9 1 -9 -6 0 -7 -3 -10 -6 -6 -9 9 5 27 22 27 8 0 12 -5 9 -10z m55 -58 c0 -53 -85 -101 -129 -73 -9 6 -2 9 25 9 52 0 88 39 82 90 -4 30 -3 32 9 16 7 -10 13 -29 13 -42z m-126 6 c-5 -8 -2 -9 9 -5 9 3 19 2 22 -3 4 -6 -3 -10 -14 -10 -10 0 -21 -6 -24 -12 -2 -7 -4 -1 -4 15 0 15 4 27 9 27 5 0 6 -5 2 -12z m-40 -44 c3 -8 2 -12 -4 -9 -6 3 -10 10 -10 16 0 14 7 11 14 -7z"/> <path d="M1514 2373 c-27 -4 -31 -7 -26 -26 5 -20 4 -20 -11 -8 -17 13 -19 10 -17 -24 1 -3 -6 -13 -15 -22 -9 -8 -13 -18 -9 -22 4 -3 9 -1 11 6 2 7 11 9 19 6 7 -3 11 -9 8 -14 -3 -5 2 -6 10 -3 9 3 16 2 16 -4 0 -15 20 -20 161 -42 145 -22 266 -51 331 -79 101 -43 144 -65 165 -84 l22 -19 -1 52 c-1 52 -2 53 -62 97 -33 25 -76 51 -96 59 -92 39 -213 77 -319 100 -141 30 -148 31 -187 27z"/> <path d="M1018 2351 c-72 -15 -127 -75 -113 -128 5 -21 10 -24 38 -18 64 13 121 48 129 80 5 18 3 32 -4 36 -6 4 -8 14 -5 23 4 9 3 15 -1 15 -4 -1 -23 -5 -44 -8z"/> <path d="M470 1941 c0 -5 7 -15 17 -22 15 -13 15 -12 4 9 -12 23 -21 28 -21 13z"/> <path d="M2470 1749 c0 -5 5 -7 10 -4 6 3 10 8 10 11 0 2 -4 4 -10 4 -5 0 -10 -5 -10 -11z"/> <path d="M2447 1583 c-3 -5 -2 -15 2 -22 7 -10 10 -10 16 -1 4 6 3 16 -3 22 -5 5 -12 6 -15 1z"/> <path d="M246 128 c7 -10 51 -10 58 0 3 5 -10 9 -29 9 -19 0 -32 -4 -29 -9z"/> <path d="M390 130 c0 -5 5 -10 10 -10 6 0 10 5 10 10 0 6 -4 10 -10 10 -5 0 -10 -4 -10 -10z"/> <path d="M426 131 c-7 -10 90 -8 101 2 3 4 -17 7 -45 7 -28 0 -53 -4 -56 -9z"/> <path d="M595 130 c28 -12 45 -12 45 0 0 6 -15 10 -32 9 -28 0 -30 -2 -13 -9z"/> <path d="M906 128 c7 -11 32 -10 39 2 3 6 -4 9 -19 8 -13 -1 -22 -6 -20 -10z"/> <path d="M1040 133 c0 -5 14 -8 30 -9 17 -1 30 3 30 7 0 5 -13 9 -30 9 -16 0 -30 -3 -30 -7z"/> <path d="M1125 130 c3 -5 8 -10 11 -10 2 0 4 5 4 10 0 6 -5 10 -11 10 -5 0 -7 -4 -4 -10z"/> <path d="M172 95 c-7 -14 -12 -28 -12 -30 0 -2 28 -3 63 -3 44 1 66 6 75 17 12 14 13 14 8 -1 -3 -10 -1 -18 4 -18 5 0 11 8 13 18 4 14 5 15 6 1 2 -24 78 -25 84 -1 4 14 5 14 6 -2 1 -20 1 -20 16 0 10 13 13 14 10 3 -5 -13 2 -16 34 -16 28 0 41 5 44 16 4 13 5 12 6 -2 2 -31 36 -16 36 16 1 32 -15 37 -16 5 0 -13 -3 -17 -6 -10 -6 16 -33 16 -33 0 0 -10 -2 -10 -8 -1 -5 7 -32 11 -75 10 -50 -2 -66 1 -62 11 2 6 0 12 -5 12 -6 0 -10 -10 -10 -22 0 -17 -3 -19 -9 -10 -5 9 -23 12 -55 9 -26 -2 -49 0 -52 5 -3 4 -10 6 -15 2 -5 -3 -7 -10 -4 -15 4 -5 1 -9 -4 -9 -6 0 -11 9 -11 20 0 28 -15 25 -28 -5z m98 -9 c0 -3 -4 -8 -10 -11 -5 -3 -10 -1 -10 4 0 6 5 11 10 11 6 0 10 -2 10 -4z m130 -6 c0 -5 -4 -10 -10 -10 -5 0 -10 5 -10 10 0 6 5 10 10 10 6 0 10 -4 10 -10z m90 0 c0 -5 -5 -10 -11 -10 -5 0 -7 5 -4 10 3 6 8 10 11 10 2 0 4 -4 4 -10z"/> <path d="M669 111 c8 -5 12 -18 8 -30 -3 -12 -1 -21 4 -21 5 0 9 9 9 19 0 11 5 23 10 26 6 3 10 -5 10 -19 l0 -25 101 1 c55 1 95 4 89 8 -8 5 -7 9 4 13 10 4 16 1 16 -8 0 -8 5 -15 10 -15 6 0 10 6 10 13 0 7 3 8 8 2 4 -6 22 -12 40 -13 24 -3 32 1 32 12 0 9 4 16 10 16 5 0 7 -7 4 -15 -4 -8 -1 -15 4 -15 6 0 13 8 15 18 4 16 5 16 6 0 1 -23 66 -25 75 -3 6 18 27 20 24 3 -2 -6 5 -14 15 -16 9 -2 17 2 17 8 0 6 -5 8 -11 4 -8 -4 -9 0 -4 15 7 22 3 22 -77 6 -10 -2 -20 0 -22 4 -2 3 -25 5 -51 3 -28 -3 -42 -7 -35 -12 8 -5 9 -10 1 -14 -6 -4 -13 4 -17 19 -3 14 -10 25 -16 25 -5 0 -6 -5 -3 -10 3 -6 3 -10 -2 -11 -59 -5 -80 -3 -76 9 8 21 -8 13 -35 -15 -16 -18 -27 -23 -30 -15 -2 6 -8 12 -13 12 -6 0 -7 -5 -3 -11 4 -7 2 -10 -5 -8 -20 7 -16 23 9 36 19 9 9 11 -61 12 -52 0 -79 -3 -70 -8z m91 -15 c0 -17 -27 -29 -35 -16 -4 6 -3 15 0 20 9 15 35 12 35 -4z m350 -10 c0 -3 -4 -8 -10 -11 -5 -3 -10 -1 -10 4 0 6 5 11 10 11 6 0 10 -2 10 -4z"/> <path d="M574 79 c0 -14 8 -19 26 -19 17 0 21 3 12 9 -11 6 -10 10 3 15 14 5 16 2 13 -19 -3 -14 -2 -25 2 -25 6 0 30 44 30 54 0 2 -19 3 -43 3 -35 0 -43 -3 -43 -18z"/> <path d="M1200 79 c0 -15 7 -18 43 -16 26 1 45 7 49 17 5 12 7 11 7 -4 1 -20 1 -20 16 0 13 16 14 16 9 2 -3 -10 -1 -18 5 -18 6 0 11 9 11 20 0 17 -7 19 -70 18 -60 -1 -70 -4 -70 -19z m30 1 c0 -5 -4 -10 -10 -10 -5 0 -10 5 -10 10 0 6 5 10 10 10 6 0 10 -4 10 -10z"/> <path d="M348 1140 c-4 -25 -1 -30 16 -29 12 0 16 3 10 5 -7 3 -10 13 -7 23 3 10 0 21 -5 25 -5 3 -12 -8 -14 -24z"/> <path d="M281 1131 c-1 -27 2 -32 11 -23 8 8 8 17 0 34 -10 22 -11 21 -11 -11z"/> <path d="M300 1150 c0 -3 7 -15 15 -26 14 -18 14 -18 15 7 0 16 -5 26 -15 26 -8 0 -15 -3 -15 -7z"/> <path d="M2298 1134 l-76 -24 30 -116 c29 -111 29 -116 12 -129 -18 -12 -20 -10 -26 28 -19 107 -126 164 -230 122 -24 -9 -50 -23 -59 -31 -15 -13 -17 -11 -23 22 l-7 36 -47 -6 c-26 -4 -62 -10 -79 -13 l-33 -5 0 -69 c0 -38 -3 -69 -7 -68 -5 0 -80 35 -168 78 l-160 77 -3 -76 -3 -77 -62 -19 c-34 -10 -67 -20 -74 -22 -8 -2 -9 7 -3 35 5 20 7 39 5 42 -4 3 -157 30 -177 31 -4 0 -8 -15 -10 -32 l-3 -33 -24 44 -23 45 -17 -30 -16 -29 -3 47 c-3 46 -4 47 -40 54 -20 3 -68 12 -105 19 l-69 12 6 -32 c6 -31 5 -33 -33 -39 -22 -3 -47 -9 -57 -13 -15 -5 -16 -2 -11 30 5 35 5 36 -36 42 -95 14 -97 15 -97 44 0 25 -6 29 -68 49 -38 12 -71 22 -74 22 -7 0 -180 -524 -182 -549 -1 -9 29 -21 91 -36 l92 -22 9 36 9 36 7 -30 c4 -16 9 -35 11 -41 3 -12 200 -58 219 -51 20 8 13 111 -8 115 -9 2 -16 10 -16 18 0 12 4 13 22 3 26 -14 106 -6 147 15 l30 16 10 -53 c5 -28 14 -77 18 -107 l8 -55 74 -3 c52 -2 77 1 82 10 5 8 37 14 84 16 45 3 78 9 80 16 2 6 6 28 10 49 l6 37 37 -30 c40 -31 109 -60 130 -53 32 11 6 -9 -53 -42 -36 -20 -65 -39 -65 -41 0 -3 20 -34 43 -69 l44 -65 83 96 c75 86 82 98 71 116 -7 11 -11 21 -9 22 2 0 18 11 36 24 l32 23 53 -48 c28 -26 62 -56 74 -66 l22 -19 25 48 25 49 1 -46 0 -46 85 28 c47 15 99 30 115 34 32 7 34 13 24 87 -5 38 -9 45 -25 41 -15 -4 -19 0 -19 23 0 29 0 29 53 26 33 -2 68 2 92 12 20 9 39 16 41 16 2 0 4 -19 4 -43 0 -64 44 -127 111 -161 94 -47 249 -33 384 33 105 52 103 43 41 144 -65 106 -60 101 -83 88 -18 -9 -28 8 -113 200 -52 115 -99 209 -105 208 -5 0 -44 -12 -87 -25z m165 -221 c107 -242 99 -228 125 -214 19 10 24 7 45 -26 38 -61 48 -83 42 -92 -10 -17 -151 -70 -213 -80 -153 -24 -272 40 -272 147 0 62 32 124 90 174 l48 41 -28 106 c-16 58 -26 108 -23 111 7 8 66 28 83 29 10 1 44 -63 103 -196z m-1940 168 c5 -5 11 -59 15 -122 l6 -114 13 80 c8 43 16 81 18 83 2 3 25 1 51 -3 l46 -7 -7 -36 c-4 -20 -15 -46 -25 -57 -55 -61 -67 -157 -27 -216 17 -26 22 -44 19 -72 -3 -29 -1 -37 12 -37 10 0 16 -9 16 -25 0 -14 -6 -25 -12 -25 -19 1 -138 27 -143 32 -2 2 -15 53 -28 113 l-24 110 -22 -95 c-13 -52 -25 -98 -27 -101 -2 -4 -19 -4 -37 1 -17 4 -44 11 -59 14 l-26 6 81 246 82 245 35 -6 c19 -4 39 -10 43 -14z m1371 -114 c4 -22 0 -48 -10 -73 -21 -51 -15 -131 14 -171 14 -21 22 -46 22 -75 0 -62 9 -88 31 -88 12 0 19 -7 19 -19 0 -15 -15 -24 -69 -40 -38 -12 -71 -21 -74 -21 -2 0 -7 26 -10 58 -4 32 -9 66 -13 75 -4 11 -1 17 9 17 8 0 17 5 19 10 2 6 2 -26 0 -70 l-4 -80 25 9 c13 5 43 15 66 21 22 6 41 16 41 22 0 5 -9 8 -19 5 -25 -6 -31 10 -31 80 0 41 -7 66 -26 99 -27 46 -27 53 -8 210 l6 50 -36 -4 -36 -4 0 -89 c0 -53 -4 -89 -10 -89 -6 0 -82 36 -171 80 l-160 81 3 -37 c3 -32 7 -37 43 -50 49 -17 48 -17 39 -3 -4 8 0 8 15 0 25 -14 28 -22 4 -15 -16 5 -16 4 1 -10 10 -8 22 -13 26 -11 4 3 14 -3 21 -13 13 -15 12 -16 -3 -3 -10 7 -18 9 -18 4 0 -25 100 -79 127 -68 9 3 11 0 7 -6 -4 -8 1 -9 17 -4 19 5 21 4 9 -4 -8 -6 -11 -11 -7 -11 5 0 -23 -34 -62 -77 -64 -69 -77 -93 -50 -93 6 0 7 6 3 13 -5 9 -3 9 7 -1 8 -7 14 -18 14 -25 1 -7 7 -11 15 -9 8 2 12 0 8 -4 -8 -7 9 -34 22 -34 3 0 24 25 45 55 21 31 40 53 43 51 4 -4 -49 -82 -85 -125 -5 -7 -104 92 -101 101 2 4 31 36 66 71 34 36 62 67 62 70 0 2 -25 15 -57 28 -31 12 -74 41 -98 64 -26 27 -56 46 -81 51 -44 11 -62 42 -50 88 l6 26 160 -80 c88 -44 163 -80 167 -80 5 0 8 37 8 82 l0 83 30 6 c57 12 62 11 69 -24z m-928 10 c2 -2 10 -44 18 -93 l13 -89 18 43 c10 23 21 42 25 42 4 0 20 -28 35 -62 l28 -63 9 55 c15 105 14 103 56 95 75 -13 75 -13 68 -63 -3 -25 -15 -56 -27 -68 -17 -19 -19 -25 -8 -42 10 -16 10 -37 0 -104 -20 -137 -15 -128 -82 -128 l-58 0 -6 38 c-15 84 -21 91 -29 27 -11 -82 -18 -92 -63 -91 l-38 1 -16 104 -17 104 25 46 c43 80 22 186 -44 222 -13 7 -23 19 -23 27 0 12 11 14 56 9 31 -3 58 -8 60 -10z m1199 -17 c52 -49 56 -122 10 -192 -63 -96 -215 -105 -261 -16 -37 72 3 174 86 220 48 26 130 20 165 -12z m-1282 -60 c46 -51 35 -141 -25 -197 -27 -26 -88 -53 -119 -53 -35 0 -89 31 -104 61 -77 148 138 312 248 189z m637 -80 c63 -32 90 -90 76 -165 -15 -80 -119 -145 -209 -131 -46 8 -107 41 -107 59 0 6 30 42 67 79 54 54 63 68 47 68 -12 0 -33 -9 -47 -20 -33 -26 -38 -26 -76 14 l-33 34 35 26 c74 56 177 72 247 36z m150 -100 c13 -8 12 -12 -6 -31 l-21 -21 -5 31 c-5 32 5 38 32 21z m-406 -81 c-21 -24 -28 -18 -20 16 6 22 9 25 22 14 13 -10 12 -14 -2 -30z m210 -177 c6 -11 -89 -127 -104 -127 -6 0 -20 14 -31 32 l-20 32 68 35 c74 38 79 40 87 28z"/> <path d="M2323 1088 c-18 -6 -33 -15 -33 -20 0 -5 11 -54 25 -109 l26 -100 -52 -47 c-85 -76 -110 -161 -69 -228 57 -90 222 -99 394 -21 l56 26 -31 51 c-31 51 -46 59 -67 38 -12 -12 -19 2 -147 290 -33 72 -62 132 -65 131 -3 -1 -20 -6 -37 -11z m43 -276 c-3 -5 6 -44 20 -87 28 -89 25 -100 -36 -100 -82 0 -113 84 -54 146 16 17 38 35 49 39 26 11 27 11 21 2z"/> <path d="M2311 771 c-35 -33 -43 -88 -15 -115 20 -20 94 -22 94 -2 0 17 -39 146 -44 146 -2 0 -18 -13 -35 -29z m38 -62 c14 -46 11 -54 -18 -44 -25 8 -35 38 -21 65 16 30 25 25 39 -21z"/> <path d="M2317 718 c-5 -15 10 -48 22 -48 10 0 2 48 -9 55 -5 3 -10 -1 -13 -7z"/> <path d="M378 858 c-43 -127 -75 -235 -71 -240 3 -6 18 -8 34 -6 15 3 26 1 23 -4 -3 -4 3 -8 14 -8 15 0 22 17 42 101 22 90 39 132 41 97 0 -7 5 -4 10 7 8 16 8 15 4 -8 -6 -29 15 -148 24 -142 3 1 6 -15 7 -37 0 -45 10 -54 72 -63 24 -4 51 -9 58 -12 8 -3 14 1 14 11 0 9 -7 16 -15 16 -11 0 -15 11 -15 41 0 25 -9 56 -21 76 -39 63 -25 164 31 228 10 11 20 32 22 47 4 23 1 27 -25 32 -16 3 -33 6 -37 6 -4 0 -15 -47 -25 -105 -10 -58 -21 -108 -25 -110 -8 -5 -20 127 -20 222 0 60 -1 61 -31 72 -18 6 -32 11 -33 11 -1 0 -36 -104 -78 -232z"/> <path d="M899 943 c66 -64 76 -161 23 -231 -17 -21 -17 -30 -3 -122 l15 -100 33 0 c35 0 35 -1 53 102 7 37 16 66 20 63 5 -3 11 1 14 7 3 7 3 3 0 -9 -3 -12 0 -49 7 -83 l12 -60 48 0 c27 0 49 3 49 6 0 4 7 49 16 101 15 89 15 95 -2 114 -17 19 -16 20 8 47 14 15 29 44 32 64 7 40 10 38 -66 52 -18 4 -22 -8 -33 -85 -7 -44 -20 -78 -28 -69 -2 3 -15 32 -30 65 -24 56 -26 58 -35 35 -35 -88 -34 -86 -41 -65 -4 11 -13 59 -20 106 -12 85 -13 87 -43 93 -67 13 -71 8 -29 -31z"/> <path d="M2005 961 c-68 -41 -106 -115 -91 -177 4 -15 20 -40 37 -56 27 -28 34 -30 85 -26 92 8 154 72 154 160 0 43 -4 54 -34 84 -28 28 -41 34 -77 34 -25 0 -57 -8 -74 -19z m105 -101 c11 -11 20 -32 19 -47 l-1 -28 -9 31 c-8 29 -33 48 -74 57 -12 3 -7 5 13 6 20 1 39 -6 52 -19z m-20 -20 c29 -29 26 -74 -6 -99 -35 -28 -61 -28 -34 -1 17 17 18 24 10 41 -15 27 -34 33 -59 20 -13 -7 -18 -17 -14 -28 4 -11 2 -14 -8 -11 -22 7 -22 42 1 71 27 34 80 37 110 7z"/> <path d="M1995 834 c-9 -9 -13 -19 -10 -22 3 -3 10 -1 17 6 16 16 67 -16 75 -48 6 -22 7 -23 14 -5 11 29 11 47 -1 40 -5 -3 -7 0 -4 9 12 31 -63 48 -91 20z"/> <path d="M709 907 c-82 -55 -105 -152 -50 -208 81 -80 241 4 241 126 0 29 -8 45 -34 71 -28 28 -41 34 -79 34 -29 0 -55 -8 -78 -23z m124 -89 c9 -11 17 -30 17 -42 -1 -17 -3 -16 -14 9 -15 35 -76 71 -76 45 0 -5 7 -10 15 -10 25 0 55 -38 55 -69 0 -33 -30 -61 -65 -61 -18 1 -19 1 -2 11 21 12 22 42 3 59 -21 17 -62 9 -58 -12 3 -22 -16 -34 -24 -14 -11 30 6 66 44 91 42 28 77 26 105 -7z"/> <path d="M712 798 c-19 -19 -14 -25 17 -20 33 5 73 -30 64 -56 -4 -9 -2 -13 4 -9 19 12 22 61 6 80 -18 20 -73 23 -91 5z"/> <path d="M1351 811 c-57 -20 -98 -52 -87 -70 4 -6 12 -11 17 -11 6 0 7 5 3 12 -5 7 -3 8 5 4 7 -5 10 -11 7 -14 -3 -3 -1 -10 4 -17 7 -9 25 -4 71 18 33 16 63 27 66 24 2 -3 -29 -44 -71 -91 l-76 -85 23 -16 c69 -49 179 -35 236 30 36 41 46 72 37 119 -13 67 -76 116 -148 116 -18 -1 -57 -9 -87 -19z m164 -106 c18 -41 8 -73 -31 -104 -33 -26 -65 -27 -95 -2 l-23 18 54 62 c29 33 59 61 67 61 8 0 21 -16 28 -35z"/> <path d="M1431 674 l-54 -58 29 -12 c70 -29 135 50 91 110 -12 17 -18 13 -66 -40z m59 0 c0 -29 -21 -54 -45 -54 -32 0 -31 7 2 42 30 32 43 35 43 12z"/> <path d="M1450 650 c-6 -11 -7 -20 -2 -20 10 0 32 21 32 32 0 16 -19 8 -30 -12z"/> <path d="M1650 699 c0 -5 5 -7 10 -4 6 3 10 8 10 11 0 2 -4 4 -10 4 -5 0 -10 -5 -10 -11z"/> <path d="M1393 427 l-63 -32 23 -27 22 -26 48 59 c26 32 44 59 40 59 -4 -1 -36 -15 -70 -33z"/> <path d="M1514 1009 c43 -22 80 -38 83 -35 6 6 -134 76 -150 76 -7 -1 23 -19 67 -41z"/> <path d="M1940 1019 c0 -11 4 -18 10 -14 5 3 7 12 3 20 -7 21 -13 19 -13 -6z"/> <path d="M1610 966 c0 -3 32 -22 70 -41 39 -19 70 -31 70 -27 0 5 -28 22 -62 37 -35 16 -66 31 -70 33 -5 2 -8 1 -8 -2z"/> <path d="M1298 890 c-7 -24 -3 -38 8 -28 3 4 4 17 2 30 l-3 23 -7 -25z"/> <path d="M709 563 c4 -52 7 -49 13 10 2 22 0 37 -7 37 -6 0 -9 -18 -6 -47z"/> <path d="M1236 524 c-4 -9 -4 -19 -1 -22 2 -3 7 3 11 12 4 9 4 19 1 22 -2 3 -7 -3 -11 -12z"/> <path d="M1535 490 c3 -5 8 -10 11 -10 2 0 4 5 4 10 0 6 -5 10 -11 10 -5 0 -7 -4 -4 -10z"/> <path d="M0 63 l0 -63 68 1 c54 1 61 2 38 9 -36 11 -75 47 -92 85 -13 29 -13 28 -14 -32z"/> </g> </svg> 