<?xml version="1.0" standalone="no"?>
<!DOCTYPE svg PUBLIC "-//W3C//DTD SVG 20010904//EN"
 "http://www.w3.org/TR/2001/REC-SVG-20010904/DTD/svg10.dtd">
<svg version="1.0" xmlns="http://www.w3.org/2000/svg"
 width="300.000000pt" height="300.000000pt" viewBox="0 0 300.000000 300.000000"
 preserveAspectRatio="xMidYMid meet">
<metadata>
Created by potrace 1.10, written by Peter Selinger 2001-2011
</metadata>
<g transform="translate(0.000000,300.000000) scale(0.100000,-0.100000)"
fill="#000000" stroke="none">
<path d="M644 2902 c5 -9 227 -5 235 4 2 2 -51 4 -118 4 -67 0 -120 -4 -117
-8z"/>
<path d="M910 2880 c6 -11 14 -18 19 -16 4 3 12 -4 19 -15 12 -19 8 -19 -178
-19 -183 0 -190 -1 -190 -20 0 -11 -4 -20 -10 -20 -10 0 -13 12 -11 40 0 8 -3
22 -9 30 -14 22 -32 -1 -40 -52 -3 -24 -7 -344 -9 -712 l-2 -669 25 16 c51 34
52 30 50 -140 -3 -184 -2 -178 -10 -170 -3 3 -19 1 -35 -5 l-29 -10 0 -449 c0
-485 1 -498 52 -515 39 -13 44 -13 357 -14 237 -1 306 2 312 12 4 7 3 15 -2
19 -14 8 -13 20 2 30 9 5 5 10 -14 15 -36 9 -45 -1 -22 -26 25 -27 9 -25 -29
4 -23 17 -40 22 -64 18 -17 -2 -32 -9 -32 -14 0 -6 9 -8 20 -5 21 5 28 -7 10
-18 -6 -4 -8 -10 -6 -14 3 -3 -4 -7 -14 -7 -13 0 -21 9 -25 27 -6 25 -9 26
-68 27 -59 1 -60 0 -30 -11 17 -7 35 -16 40 -21 12 -12 -135 0 -151 13 -7 6
-16 8 -19 4 -4 -3 -7 -1 -7 5 0 8 -23 12 -67 12 l-68 -1 30 -16 c46 -25 12
-27 -36 -2 -41 21 -43 21 -57 3 -13 -17 -14 -17 -9 -2 5 15 1 18 -26 15 -22
-1 -32 2 -32 13 -1 8 -5 23 -9 33 -5 9 -5 29 -1 45 l7 27 13 -25 c14 -25 14
-25 15 13 0 24 -7 45 -20 59 -22 24 -28 64 -8 52 11 -6 11 -4 1 7 -18 18 -16
29 4 29 15 0 15 1 0 18 -24 26 -23 50 1 29 25 -23 32 -21 32 6 0 13 -11 37
-25 53 -14 16 -25 32 -25 35 0 16 15 17 32 2 17 -15 18 -15 18 13 0 16 -11 46
-25 66 -27 40 -32 62 -12 55 6 -2 11 -10 9 -16 -1 -6 5 -11 13 -11 22 0 18 28
-8 53 -16 15 -24 36 -26 67 l-3 45 20 -23 c11 -12 22 -22 26 -22 14 0 5 74
-13 99 -11 15 -23 45 -27 66 -7 40 -5 52 9 47 4 -1 7 9 7 23 0 14 5 25 10 25
6 0 15 10 20 23 l9 22 0 -22 c1 -28 17 -30 26 -5 7 24 58 49 63 32 3 -7 10 -6
22 5 14 13 23 14 37 6 10 -6 14 -11 10 -11 -5 0 -2 -7 6 -15 9 -8 17 -20 20
-27 2 -7 8 -9 13 -5 9 9 -24 77 -39 77 -5 0 -4 7 4 16 8 10 24 14 45 12 18 -2
31 -1 29 2 -2 3 0 12 5 20 7 12 12 11 30 -5 18 -17 61 -33 46 -18 -10 10 53
43 69 37 9 -4 22 -19 31 -35 14 -27 13 -29 -5 -29 -11 0 -22 6 -24 13 -4 7 -6
6 -6 -4 -1 -9 -7 -19 -13 -21 -19 -7 -39 2 -32 14 4 7 2 8 -4 4 -8 -5 -9 -13
-2 -25 7 -14 5 -23 -10 -36 -25 -22 -25 -26 -1 -52 11 -11 18 -29 16 -39 -2
-11 -4 -22 -4 -26 -1 -5 -7 -8 -15 -8 -7 0 -20 -8 -27 -17 -12 -15 -12 -16 3
-10 12 4 15 2 11 -9 -3 -7 -1 -14 4 -14 12 0 74 110 68 120 -3 5 -19 11 -36
15 -25 6 -28 9 -18 21 25 31 99 66 124 60 22 -6 24 -10 20 -59 -5 -67 1 -92
21 -76 9 7 11 16 5 23 -4 6 -9 29 -9 51 -1 22 -4 53 -8 69 -6 26 -5 28 17 21
13 -4 53 -24 89 -45 186 -108 241 -125 363 -111 104 12 151 28 262 91 50 27
98 50 108 50 18 0 19 -6 21 -95 1 -27 6 -51 11 -52 12 -3 12 -1 14 72 1 51 3
55 25 55 14 0 28 -5 31 -10 4 -6 10 -8 14 -6 4 3 23 -7 41 -23 l33 -27 -31
-13 c-36 -15 -39 -23 -16 -42 13 -10 17 -10 25 2 5 8 7 20 4 26 -2 7 0 13 5
13 16 0 12 -32 -6 -52 -14 -14 -14 -20 -4 -33 7 -8 16 -12 21 -9 5 3 6 -3 2
-13 -6 -16 -5 -16 11 -4 9 8 15 19 12 26 -2 6 2 12 10 12 21 0 7 -37 -27 -70
-27 -25 -35 -37 -25 -37 3 0 11 6 18 13 25 24 79 59 84 54 3 -3 -3 -23 -14
-46 -20 -40 -20 -40 -1 -30 11 5 17 14 14 19 -10 16 26 48 47 42 20 -5 21 -25
2 -77 -4 -14 3 -10 22 12 l29 33 28 -25 c17 -15 27 -32 23 -41 -4 -12 -2 -12
14 -4 26 14 29 13 40 -13 7 -17 9 -18 9 -4 1 9 5 17 10 17 6 0 12 -24 14 -53
3 -40 5 -47 11 -30 5 13 12 23 17 23 15 0 10 -34 -11 -65 -22 -34 -28 -109 -7
-103 6 3 12 10 12 16 0 5 3 14 8 18 10 10 9 -38 -2 -55 -5 -7 -13 -11 -18 -8
-5 3 -10 -13 -11 -36 0 -23 2 -35 6 -27 9 20 32 24 32 6 0 -25 -12 -46 -26
-46 -9 0 -14 -11 -14 -27 0 -21 3 -24 12 -15 18 18 28 15 28 -8 0 -11 -9 -28
-20 -37 -11 -10 -20 -28 -20 -41 0 -21 1 -22 16 -8 8 9 19 16 23 16 14 0 -1
-65 -21 -86 -10 -12 -18 -25 -17 -30 4 -22 -2 -34 -16 -34 -8 0 -15 -4 -15
-10 0 -5 -5 -10 -11 -10 -5 0 -7 4 -4 10 4 6 -6 10 -22 10 -27 -1 -27 -1 -9
-15 21 -16 18 -17 -38 -30 -27 -6 -28 -4 -22 20 8 30 3 31 -32 6 -30 -22 -92
-35 -92 -20 0 5 -25 8 -55 6 -38 -2 -55 1 -55 10 0 6 12 14 28 16 25 4 25 4
-5 6 -27 1 -33 -3 -33 -19 0 -17 -6 -19 -62 -17 -39 1 -63 7 -66 15 -2 6 1 12
8 12 6 0 9 -4 6 -9 -8 -13 39 -8 52 5 17 18 -57 15 -97 -4 -25 -12 -56 -16
-103 -15 -55 2 -69 -1 -77 -15 -7 -11 -11 -12 -11 -4 0 10 -18 13 -75 10 -55
-2 -75 0 -75 10 0 6 6 12 14 12 35 0 22 18 -15 22 -37 3 -41 1 -56 -30 -9 -18
-14 -35 -11 -37 9 -10 885 -13 928 -3 29 6 53 19 67 37 22 27 22 29 24 557 1
291 1 639 0 772 -1 134 0 246 3 249 3 3 2 13 -2 22 -5 9 -6 74 -3 144 4 71 6
303 6 517 l0 388 -24 26 c-29 31 -88 53 -103 38 -6 -6 -11 -21 -12 -34 -1 -23
-4 -23 -118 -26 -65 -1 -118 1 -118 4 0 4 15 20 33 35 l32 28 -514 0 -514 1
21 -23 c33 -35 28 -47 -18 -47 -23 0 -54 -7 -69 -15 -16 -8 -32 -11 -36 -7 -5
4 -5 1 -1 -6 4 -7 13 -12 19 -11 7 1 17 1 22 0 14 -1 13 -81 0 -81 -21 1 -45
28 -39 44 4 10 1 16 -9 16 -8 0 -18 7 -21 16 -4 10 -2 13 7 8 8 -5 7 -2 -2 9
-19 24 -51 22 -51 -3 0 -11 4 -20 10 -20 5 0 12 -11 16 -25 3 -14 10 -25 16
-25 5 0 7 -4 3 -10 -3 -5 3 -18 14 -29 26 -26 53 -79 47 -90 -3 -5 3 -16 14
-26 11 -10 17 -22 14 -26 -3 -5 2 -12 10 -15 9 -3 16 -16 16 -29 0 -14 7 -25
20 -28 12 -3 18 -11 15 -19 -7 -17 13 -74 22 -64 3 3 15 -8 25 -24 21 -36 23
-43 6 -35 -7 4 -5 0 6 -9 10 -8 15 -19 11 -25 -3 -6 -1 -11 4 -11 6 0 11 -7
11 -15 0 -8 6 -15 13 -15 9 0 9 -2 -1 -9 -11 -7 -11 -9 2 -14 9 -4 16 -14 16
-24 0 -19 48 -73 64 -73 6 0 4 5 -4 10 -11 7 -11 10 -2 10 7 0 12 8 10 17 -2
12 6 19 27 24 21 5 24 7 9 8 -20 1 -21 6 -20 85 l1 85 36 6 c34 6 36 8 25 31
-8 18 -19 24 -45 24 -28 0 -33 3 -28 20 3 11 2 20 -3 20 -4 0 -10 10 -13 23
-2 12 -8 30 -12 40 -6 13 -2 17 18 17 14 0 33 3 42 6 27 11 -3 23 -41 17 -29
-5 -35 -2 -44 21 -13 36 -13 56 3 56 6 0 12 13 13 28 1 25 -2 28 -24 24 -24
-5 -42 10 -42 35 0 7 17 17 38 22 61 17 232 33 245 24 14 -11 23 -10 57 4 21
9 12 11 -55 13 -150 3 -228 0 -240 -10 -7 -6 -20 -5 -36 3 -57 29 -63 13 -28
-81 10 -30 17 -58 14 -63 -4 -5 -1 -9 5 -9 7 0 9 -7 6 -16 -3 -8 -2 -13 3 -10
11 7 21 -17 21 -48 0 -12 5 -27 12 -34 7 -7 8 -12 4 -12 -5 0 -2 -8 5 -17 12
-14 12 -16 0 -8 -15 9 -9 -6 14 -35 7 -8 13 -22 13 -30 0 -8 5 -33 11 -55 13
-49 14 -172 2 -179 -11 -7 -21 17 -21 50 0 13 -5 24 -11 24 -5 0 -7 5 -4 10 4
6 1 17 -5 25 -6 8 -9 19 -5 25 3 5 1 10 -4 10 -10 0 -42 64 -39 78 1 4 -6 24
-15 46 -9 21 -14 42 -11 47 3 5 -1 12 -9 15 -14 5 -17 17 -19 66 -1 15 -7 29
-15 32 -8 3 -12 10 -8 15 3 5 1 12 -4 15 -8 6 -25 77 -21 92 1 3 -5 11 -13 17
-8 7 -17 19 -20 28 -4 14 5 17 55 22 41 4 71 13 91 28 21 15 32 18 35 11 2 -7
8 -9 14 -6 6 4 50 8 97 9 47 2 78 1 69 -2 -10 -2 -18 -9 -18 -15 0 -6 -9 -8
-20 -5 -11 3 -20 1 -20 -3 0 -5 71 -8 158 -8 86 0 153 2 147 4 -24 9 -161 21
-170 14 -5 -4 -21 -1 -35 6 -23 12 -18 14 53 14 43 0 99 -5 124 -11 35 -9 47
-9 53 0 5 10 9 9 13 -3 3 -8 1 -17 -6 -20 -7 -2 2 -5 18 -5 17 0 25 3 18 7 -7
5 -9 13 -4 21 7 11 10 9 16 -8 8 -25 40 -28 49 -5 5 13 15 15 51 11 25 -4 47
-2 50 3 4 6 11 7 17 4 6 -4 29 -6 51 -6 31 2 38 -1 33 -13 -3 -8 -2 -14 2 -13
4 1 34 -4 66 -11 40 -9 87 -11 140 -7 74 7 79 6 60 -8 -12 -8 -27 -29 -34 -46
-7 -16 -18 -30 -25 -30 -15 0 -36 -23 -39 -42 -1 -8 -11 -28 -24 -45 -21 -29
-21 -31 -3 -47 9 -9 21 -16 25 -16 4 0 19 -11 33 -24 15 -14 30 -23 34 -20 4
2 11 -5 14 -17 4 -11 9 -18 11 -16 9 9 -20 58 -32 53 -6 -2 -16 6 -23 20 -6
13 -14 24 -19 24 -4 0 -8 9 -8 19 0 16 3 17 14 9 11 -9 12 -6 6 17 -6 25 -5
28 15 22 17 -4 21 -2 17 8 -3 8 2 27 10 43 19 39 52 33 80 -15 l21 -36 1 32
c0 25 -5 34 -24 41 -13 5 -24 14 -24 19 0 5 -3 16 -6 25 -5 12 1 16 22 17 24
1 25 2 7 6 -36 7 -27 23 12 23 29 0 35 -4 33 -17 -2 -13 3 -17 17 -16 18 1 18
0 3 -11 -20 -15 -19 -44 5 -68 19 -20 23 -48 6 -48 -5 0 -7 5 -4 10 3 6 1 10
-4 10 -6 0 -14 0 -18 0 -15 0 -9 -25 11 -48 14 -16 20 -37 21 -77 0 -49 -1
-53 -16 -40 -8 8 -18 12 -22 9 -8 -8 3 -35 12 -30 4 3 8 -5 8 -17 2 -17 0 -19
-7 -7 -12 18 -7 -34 6 -64 5 -14 4 -17 -5 -12 -8 6 -7 -2 3 -22 21 -41 22
-126 1 -118 -19 7 -19 -4 1 -32 9 -13 14 -35 11 -55 -4 -29 -5 -30 -12 -9 -4
12 -11 22 -16 22 -16 0 -6 -74 13 -94 19 -21 25 -66 8 -66 -5 0 -7 7 -4 15 4
8 2 15 -3 15 -19 0 -22 -13 -8 -34 20 -32 40 -166 24 -166 -4 0 -10 17 -14 38
-15 93 -24 61 -23 -80 2 -80 6 -144 11 -141 4 2 5 13 2 23 -3 10 -1 21 5 25 6
4 10 3 9 -2 -1 -4 -1 -10 0 -13 2 -3 5 -40 8 -82 3 -53 1 -78 -6 -78 -6 0 -11
14 -11 31 0 17 -4 28 -10 24 -5 -3 -10 -22 -10 -41 0 -32 2 -34 25 -28 15 4
25 2 25 -4 0 -6 -10 -12 -22 -14 -35 -5 -33 -43 5 -73 l32 -27 -32 6 c-31 5
-33 4 -33 -22 0 -20 3 -23 10 -12 16 26 22 2 7 -27 -24 -45 -30 -66 -28 -105
2 -21 -2 -38 -7 -38 -23 0 -71 23 -66 31 3 6 -4 7 -19 4 -17 -5 -36 1 -62 20
-35 23 -40 24 -54 10 -13 -13 -13 -16 4 -29 11 -8 24 -12 30 -9 5 4 7 3 3 -2
-4 -4 -3 -14 3 -22 9 -10 15 -11 26 -2 20 17 27 4 8 -15 -23 -23 -33 -20 -66
15 -16 17 -33 28 -38 25 -5 -3 -11 8 -13 24 -4 23 -2 27 8 19 19 -16 38 -1 23
17 -6 8 -16 14 -21 14 -5 0 -45 18 -89 40 -75 36 -83 38 -104 24 -20 -13 -45
-53 -45 -74 0 -19 133 -79 211 -94 15 -3 50 -22 79 -42 29 -20 49 -31 46 -25
-10 16 3 13 21 -4 8 -8 18 -13 23 -10 4 3 10 -2 14 -10 3 -9 12 -12 22 -8 11
4 15 2 11 -4 -7 -12 21 -22 41 -16 7 3 13 25 13 56 2 47 2 49 8 17 6 -31 8
-33 17 -16 7 12 14 15 18 7 9 -14 -12 -53 -25 -46 -10 7 -12 -6 -3 -29 3 -9
12 -16 20 -16 25 0 34 -38 34 -139 0 -95 -1 -100 -20 -96 -38 7 -40 15 -40
136 0 65 -4 119 -8 119 -5 0 -9 -8 -9 -18 1 -9 0 -62 -1 -116 l-2 -99 -20 19
c-12 10 -28 27 -38 37 -9 9 -20 17 -25 17 -5 0 -15 7 -24 15 -8 8 -19 13 -24
9 -5 -3 -22 8 -38 25 -18 20 -39 31 -56 31 -14 0 -24 4 -20 9 7 12 -29 33 -39
24 -3 -3 -6 7 -6 24 0 38 -52 81 -108 90 -20 3 -41 12 -45 20 -4 7 -24 13 -42
13 -19 0 -35 3 -35 8 0 10 -44 29 -58 24 -7 -2 -10 -8 -6 -13 3 -5 -4 -9 -15
-9 -12 0 -20 -5 -19 -11 2 -6 -5 -13 -16 -14 -10 -2 -40 -13 -66 -24 -49 -21
-103 -33 -153 -35 -20 -1 -29 -7 -33 -23 -3 -12 -3 -26 0 -31 3 -5 -1 -15 -9
-22 -13 -10 -29 -10 -83 1 -56 12 -66 17 -64 33 4 24 -7 70 -15 62 -3 -3 -11
-2 -17 3 -6 5 -30 14 -53 20 -24 7 -43 16 -43 21 0 5 -12 16 -27 24 -31 16
-132 106 -118 106 4 0 0 9 -10 20 -10 11 -24 20 -32 20 -7 0 -13 5 -13 10 0
19 -18 10 -23 -11 -5 -20 -7 -20 -29 -5 -52 37 -118 8 -118 -51 0 -13 -4 -23
-10 -23 -5 0 -10 -7 -10 -16 0 -10 -5 -14 -15 -10 -15 6 -87 -22 -93 -36 -2
-5 -12 -8 -23 -8 -10 0 -19 -5 -19 -10 0 -6 -3 -9 -7 -8 -12 2 -46 -13 -65
-30 -17 -14 -18 -6 -18 156 0 152 -2 172 -17 181 -10 6 -13 11 -8 11 14 0 18
50 4 50 -5 0 -7 -4 -4 -10 3 -5 2 -10 -3 -10 -6 0 -12 7 -16 15 -3 8 -2 15 3
15 4 0 5 20 1 44 -4 25 -2 52 3 62 7 12 6 15 -2 10 -6 -4 -11 -1 -11 8 0 8 4
17 9 21 6 3 6 18 1 36 -7 23 -5 37 5 53 8 11 15 16 15 10 0 -5 -6 -16 -12 -23
-11 -11 -10 -13 2 -9 11 3 16 22 18 69 2 59 1 62 -13 45 -8 -11 -15 -18 -16
-15 -8 37 -2 129 9 146 8 13 16 40 18 60 l3 38 -19 -35 c-11 -19 -20 -30 -20
-25 -7 60 -7 75 0 75 4 0 6 39 3 88 -5 96 -5 95 1 135 2 15 0 27 -6 27 -6 0 1
15 16 34 21 29 26 45 25 93 0 32 -3 52 -6 44 -3 -7 -14 -22 -24 -32 -16 -16
-19 -16 -19 -4 0 9 7 29 15 45 9 17 11 30 5 30 -11 0 -8 44 5 73 5 13 10 15
15 7 4 -6 7 4 7 22 0 18 -2 25 -4 15 -4 -17 -25 -21 -24 -4 1 4 1 17 1 28 0
17 3 19 14 10 11 -10 15 -8 19 6 4 15 5 15 6 -3 0 -12 9 -32 19 -45 10 -13 24
-36 31 -51 12 -24 11 -29 -13 -55 -14 -15 -26 -37 -25 -48 0 -19 1 -19 9 1 4
12 20 34 34 49 23 25 31 26 27 3 0 -5 6 -8 15 -8 10 0 14 -6 11 -14 -4 -9 1
-17 11 -20 21 -7 47 -50 56 -93 6 -27 2 -37 -28 -71 -38 -42 -43 -52 -25 -52
15 0 69 61 69 78 0 6 9 12 20 12 11 0 20 -5 20 -12 0 -7 12 -24 26 -40 25 -25
26 -29 12 -50 -9 -13 -28 -35 -43 -51 -16 -15 -26 -30 -23 -33 4 -3 25 14 48
38 26 27 43 38 47 31 7 -18 30 -16 37 3 8 21 -5 43 -35 58 -13 7 -23 18 -21
24 1 7 -3 12 -9 12 -5 0 -7 5 -4 10 3 6 -1 10 -9 10 -10 0 -16 9 -16 25 0 14
-4 25 -10 25 -5 0 -10 7 -10 15 0 8 -7 15 -15 15 -8 0 -15 7 -15 15 0 8 -5 15
-11 15 -5 0 -7 5 -4 10 4 6 1 9 -7 8 -7 -2 -13 6 -13 17 0 11 -7 20 -15 20 -8
0 -16 6 -16 13 -1 6 -2 16 -3 21 0 5 -19 28 -41 51 -22 23 -38 45 -35 50 3 4
-4 10 -14 13 -17 4 -35 60 -23 72 3 3 85 5 183 5 169 0 237 9 224 29 -3 5 0
13 6 17 7 4 9 3 5 -4 -4 -7 3 -10 21 -9 18 1 27 -3 26 -10 -2 -7 5 -13 16 -13
13 0 20 9 23 30 3 17 2 32 0 35 -3 3 -50 5 -104 5 -96 0 -98 -1 -88 -20z m226
-211 c1 -14 4 -31 7 -36 8 -12 -20 -26 -34 -17 -5 3 -7 10 -3 15 3 6 -4 18
-16 26 -22 16 -22 17 -4 30 27 20 49 12 50 -18z m28 -102 c-1 -9 2 -17 7 -17
5 0 9 -7 9 -15 0 -8 -4 -15 -9 -15 -13 0 -32 26 -24 33 3 4 1 7 -5 7 -7 0 -12
7 -12 16 0 9 7 14 18 12 9 -2 16 -11 16 -21z m861 -1220 c-15 -8 -21 -37 -7
-37 4 0 21 4 39 9 33 10 73 -8 73 -33 0 -24 -25 -47 -43 -40 -12 4 -15 10 -7
19 15 18 2 24 -30 12 -22 -9 -33 -7 -54 6 -30 20 -33 43 -11 75 13 18 19 20
35 10 16 -11 17 -14 5 -21z m-1037 -25 c14 14 57 -6 67 -30 4 -12 3 -13 -10
-2 -13 10 -27 6 -84 -27 l-69 -40 -18 32 c-9 18 -15 39 -11 48 8 22 78 37 98
21 12 -11 18 -11 27 -2z m1482 -98 c0 -26 -4 -34 -18 -34 -29 0 -42 21 -42 68
l0 43 30 -21 c23 -17 30 -29 30 -56z m-1436 37 c3 -5 18 -12 33 -16 31 -7 95
-65 72 -65 -8 0 -24 7 -35 15 -12 8 -33 12 -47 10 -28 -6 -41 7 -43 43 -1 22
10 30 20 13z m1295 -56 c13 4 21 2 21 -5 0 -6 5 -8 10 -5 6 4 10 -5 10 -19 0
-18 -5 -26 -17 -26 -20 0 -45 14 -44 24 1 3 -2 6 -5 5 -11 -1 -23 24 -17 34 3
5 9 4 13 -3 4 -7 16 -9 29 -5z m-704 -125 c-34 -22 -79 -27 -73 -7 5 12 42 23
83 26 16 1 14 -3 -10 -19z"/>
<path d="M907 1314 c-11 -11 -8 -34 4 -34 5 0 7 4 4 10 -4 6 1 7 11 3 11 -4
15 -2 12 7 -5 16 -21 23 -31 14z"/>
<path d="M2053 2801 c-5 -21 -53 -24 -53 -3 0 8 -15 12 -42 11 l-43 -1 35 -10
c52 -14 81 -39 74 -65 -3 -11 -14 -23 -25 -26 -10 -3 -17 -2 -14 3 6 10 -16
27 -35 25 -8 -1 -21 -3 -28 -3 -7 -1 -10 -7 -7 -13 4 -6 9 -8 12 -5 5 5 15 -2
48 -32 13 -12 13 -15 -1 -29 -22 -23 -57 -23 -72 -2 -7 10 -19 16 -28 12 -11
-4 -12 -9 -3 -19 6 -8 15 -12 19 -9 5 3 11 1 15 -5 4 -6 10 -8 15 -5 4 3 13
-2 19 -9 8 -10 9 -16 1 -21 -5 -3 -10 -15 -10 -26 0 -25 -22 -34 -49 -20 -22
12 -126 23 -116 12 4 -3 10 -6 13 -7 14 -1 101 -44 106 -53 9 -14 -5 -41 -21
-41 -9 0 -13 -8 -11 -22 2 -19 -2 -23 -22 -22 -14 0 -36 4 -50 8 -23 7 -15 0
48 -39 6 -4 -11 -35 -20 -35 -5 0 -28 9 -50 20 -50 24 -55 24 -55 5 0 -8 12
-18 27 -24 32 -11 55 -60 46 -96 -4 -14 -20 -40 -36 -57 -25 -26 -34 -29 -63
-24 -68 13 -97 86 -58 150 l21 33 -28 2 c-49 3 -67 7 -89 19 -29 16 -29 9 -5
-77 13 -46 25 -67 43 -77 22 -12 20 -13 -35 -14 -50 0 -57 2 -46 15 8 10 9 28
4 57 l-7 43 -9 -30 c-4 -16 -9 -45 -10 -62 -2 -49 -14 -40 -35 25 l-18 57 -3
-39 c-2 -21 0 -46 4 -55 4 -9 6 -22 5 -28 -1 -7 2 -13 6 -14 4 0 50 -1 101 -3
52 -2 98 -8 105 -15 6 -6 21 -11 34 -11 13 0 23 -4 23 -8 0 -5 12 -7 28 -4 35
5 101 91 98 127 -2 13 0 23 3 21 6 -4 32 20 31 29 -2 43 2 53 18 51 13 -1 16
5 14 25 -2 20 2 28 20 32 12 4 19 9 15 13 -3 4 7 25 23 47 18 25 26 45 21 50
-6 6 -1 18 12 33 38 40 44 49 39 62 -2 7 3 19 11 25 8 7 18 25 21 41 4 15 10
26 13 22 11 -11 33 32 26 50 -4 12 -3 15 5 10 8 -5 10 -2 6 8 -3 9 -1 16 5 16
6 0 11 5 11 10 0 18 -42 11 -47 -9z m-503 -461 c0 -5 10 -10 21 -10 17 0 20
-4 15 -22 -3 -13 -6 -26 -6 -30 0 -19 -32 -5 -40 18 -13 33 -13 54 0 54 6 0
10 -4 10 -10z"/>
<path d="M1353 2700 c4 -17 2 -20 -15 -14 -13 4 -19 2 -16 -6 2 -6 7 -11 11
-11 4 1 16 1 27 1 13 0 20 7 20 19 0 11 6 22 13 24 6 3 -1 6 -17 6 -24 1 -27
-2 -23 -19z"/>
<path d="M2145 2558 c-9 -15 -13 -33 -9 -40 4 -6 3 -8 -3 -5 -14 9 -37 -19
-28 -32 3 -6 0 -8 -8 -5 -11 4 -13 -1 -10 -20 4 -20 1 -26 -11 -26 -10 0 -14
-4 -11 -10 3 -5 -1 -10 -11 -10 -11 0 -15 -6 -12 -18 5 -18 -13 -42 -32 -42
-7 0 -10 -6 -7 -12 2 -7 -5 -26 -18 -43 -12 -16 -24 -38 -28 -48 -6 -17 -9
-16 -40 7 -41 31 -47 32 -40 6 7 -28 -71 -116 -100 -112 -18 2 -14 -4 18 -32
21 -19 44 -32 50 -28 5 3 4 -2 -4 -11 -12 -15 -7 -23 38 -66 28 -27 51 -54 51
-60 0 -5 11 -22 25 -37 14 -15 28 -39 31 -53 3 -14 14 -47 25 -72 20 -51 28
-195 12 -239 -5 -14 -9 -32 -8 -40 0 -8 -3 -17 -7 -20 -4 -3 -5 -21 -2 -40 5
-31 9 -35 37 -36 18 -1 43 -4 57 -7 14 -3 39 -8 55 -12 17 -3 32 -10 33 -16 2
-5 8 -6 13 -3 6 3 16 1 24 -6 10 -8 19 -9 35 0 18 10 26 7 57 -20 21 -19 41
-29 51 -25 13 5 13 3 1 -12 -12 -15 -12 -16 4 -10 10 4 21 7 23 7 2 0 4 8 4
18 0 10 -16 33 -35 52 -29 28 -37 32 -48 21 -10 -11 -9 -13 6 -8 12 5 17 1 17
-14 0 -19 0 -20 -21 -1 -14 14 -18 26 -14 45 4 13 2 28 -4 31 -6 4 -8 -2 -6
-14 2 -11 0 -20 -6 -20 -5 0 -9 -6 -9 -14 0 -10 -8 -12 -32 -7 -35 7 -47 40
-19 49 10 3 12 -1 9 -15 -6 -23 18 -28 26 -6 3 8 1 11 -4 8 -6 -3 -10 3 -10
14 0 12 9 23 23 27 l22 8 -25 7 c-23 6 -23 7 -3 8 29 1 27 37 -1 38 -57 4 -81
10 -80 21 1 6 2 24 3 38 1 23 4 25 26 20 26 -7 29 -2 38 74 5 42 -8 84 -24 74
-8 -4 -10 -29 -6 -70 l5 -64 -31 0 c-24 0 -28 3 -19 12 17 17 15 48 -3 48 -18
0 -20 -26 -2 -33 6 -3 -3 -6 -20 -6 -32 -1 -49 -21 -18 -21 18 0 31 -48 17
-62 -17 -17 -40 -2 -44 29 -2 23 -7 28 -28 25 -24 -3 -25 -1 -25 63 0 36 2 61
3 55 4 -11 97 -12 126 -1 18 7 18 8 -4 24 -22 15 -26 15 -48 1 -23 -15 -26
-15 -44 4 -11 11 -17 25 -14 31 9 14 53 14 58 0 2 -6 14 -5 33 5 17 9 35 16
41 16 7 0 14 6 16 13 7 17 -26 110 -40 115 -16 5 -15 -21 3 -65 8 -19 15 -38
15 -42 0 -8 -52 -32 -58 -26 -3 3 0 5 6 5 7 0 12 7 12 15 0 19 -18 19 -61 1
-65 -26 -79 -29 -73 -12 3 9 1 16 -6 16 -6 0 -8 5 -5 10 3 6 1 10 -4 10 -6 0
-11 5 -11 11 0 8 4 8 14 0 12 -10 27 -9 70 5 58 18 73 34 34 34 -20 1 -18 4
12 20 28 15 31 19 14 20 -23 0 -50 45 -34 55 6 4 10 11 10 17 0 6 -6 5 -16 -3
-13 -11 -17 -10 -26 4 -11 20 -30 13 -22 -7 8 -20 -22 -74 -46 -81 -19 -6 -61
10 -59 23 3 19 -2 33 -10 27 -5 -3 -12 -1 -15 3 -3 5 8 19 24 30 34 26 41 27
34 7 -9 -22 3 -45 20 -39 9 4 16 22 18 47 3 39 5 42 35 45 24 2 35 -2 45 -17
17 -28 33 -26 33 3 0 13 -3 22 -7 19 -5 -2 -8 3 -8 11 0 9 -6 15 -12 14 -8 -2
-12 7 -12 20 1 18 -1 21 -10 12 -6 -6 -12 -15 -12 -20 -1 -6 -2 -12 -3 -15 0
-3 -10 -1 -21 5 -11 6 -18 15 -15 20 3 5 -4 11 -15 15 -11 4 -17 11 -14 17 18
29 -19 -4 -59 -52 -36 -43 -43 -58 -36 -72 13 -24 0 -23 -26 2 -21 20 -22 24
-9 77 l13 55 -25 -23 c-24 -22 -34 -46 -14 -34 6 3 10 1 10 -4 0 -15 -12 -14
-38 5 l-22 15 35 35 c19 19 40 34 45 34 6 0 13 7 16 15 7 18 34 20 34 2 0 -6
-4 -27 -9 -45 -12 -41 -2 -41 27 1 20 29 21 32 5 39 -15 5 -15 7 -2 7 9 1 24
-8 34 -19 10 -11 23 -20 28 -20 6 0 0 10 -13 22 -14 13 -19 23 -12 26 7 2 12
9 12 16 0 17 35 48 43 39 4 -3 7 1 7 11 0 9 5 14 10 11 6 -3 10 -1 10 5 0 6
-7 13 -15 16 -20 8 -19 21 3 28 9 3 23 20 31 37 8 17 24 41 37 52 13 11 24 31
24 44 0 13 6 23 13 23 14 0 77 -58 93 -85 10 -18 11 -18 9 4 -1 13 -9 29 -19
36 -9 7 -17 17 -17 22 1 4 -3 9 -9 9 -5 1 -14 2 -19 3 -13 2 -22 31 -14 44 4
7 9 20 10 29 4 27 -33 17 -52 -14z m-131 -456 c15 -18 15 -20 -4 -37 -11 -10
-23 -15 -27 -12 -3 4 -12 2 -19 -4 -8 -7 -14 -6 -19 2 -8 12 14 31 27 23 5 -3
6 6 2 20 -8 32 14 36 40 8z m86 -153 c0 -11 -7 -22 -15 -25 -8 -4 -15 -12 -15
-20 0 -17 -26 -19 -36 -3 -4 8 -9 7 -15 -2 -6 -9 -9 -10 -9 -2 0 6 12 21 28
33 15 12 28 26 28 31 3 17 4 18 19 13 8 -4 15 -15 15 -25z m32 -405 c29 -7 63
-14 76 -14 16 0 21 -4 15 -12 -4 -7 -9 -21 -10 -31 -6 -39 -23 -57 -54 -57
-16 0 -32 6 -35 14 -5 12 -9 12 -32 0 -37 -19 -66 -18 -58 2 3 9 6 19 6 22 0
4 12 8 26 9 39 2 51 27 17 33 -23 4 -27 10 -29 45 -3 36 -1 38 11 22 7 -10 37
-25 67 -33z"/>
<path d="M1440 2560 c6 -11 15 -18 20 -15 4 3 11 -1 13 -7 4 -10 6 -9 6 1 1
14 -26 40 -42 41 -4 0 -3 -9 3 -20z"/>
<path d="M2342 2550 c7 -11 16 -20 19 -20 3 0 14 9 24 20 10 11 13 20 7 20 -7
0 -12 -5 -12 -12 0 -9 -3 -9 -12 0 -7 7 -18 12 -25 12 -11 0 -11 -4 -1 -20z"/>
<path d="M1593 2527 c2 -7 17 -13 33 -15 27 -2 27 -1 9 10 -27 17 -47 19 -42
5z"/>
<path d="M2330 2501 c0 -5 15 -20 33 -33 l32 -25 2 25 c1 16 -2 20 -7 12 -10
-16 -33 -2 -26 16 3 9 -2 14 -14 14 -11 0 -20 -4 -20 -9z"/>
<path d="M1460 2440 l-25 -7 27 -8 c35 -9 55 -3 37 11 -8 6 -25 8 -39 4z"/>
<path d="M1673 2430 c-2 -24 15 -36 30 -21 8 8 8 11 -1 11 -7 0 -12 7 -12 15
0 22 -16 18 -17 -5z"/>
<path d="M625 2397 c-13 -8 -21 -24 -23 -47 l-3 -35 26 30 c14 17 25 38 25 48
0 20 1 20 -25 4z"/>
<path d="M1421 2346 c5 -17 9 -32 9 -33 0 -2 4 -3 9 -3 5 0 11 15 13 34 3 29
1 34 -18 34 -20 0 -21 -4 -13 -32z"/>
<path d="M563 2317 c3 -8 1 -20 -3 -27 -5 -8 -6 -18 -3 -23 3 -5 9 -3 14 4 12
20 11 59 -2 59 -6 0 -9 -6 -6 -13z"/>
<path d="M685 2320 c-3 -5 -3 -10 1 -10 4 0 0 -6 -10 -13 -11 -8 -17 -20 -14
-28 3 -10 9 -8 23 8 20 24 28 53 15 53 -5 0 -12 -4 -15 -10z"/>
<path d="M911 2278 c-43 -46 -38 -65 9 -36 15 9 22 10 31 1 8 -8 5 -17 -15
-34 -14 -12 -26 -29 -26 -36 0 -7 -5 -13 -11 -13 -5 0 -7 5 -3 12 4 7 3 8 -4
4 -7 -4 -12 -14 -12 -22 0 -9 5 -12 12 -8 7 5 8 3 4 -5 -5 -7 -14 -10 -21 -7
-8 3 -18 -7 -25 -25 -7 -16 -17 -26 -23 -22 -5 3 -7 1 -4 -4 4 -6 -2 -22 -13
-36 -23 -28 -42 -73 -44 -102 -1 -11 -5 -26 -9 -32 -5 -7 -6 -13 -3 -13 3 0
-4 -21 -15 -46 -19 -46 -19 -68 1 -48 9 9 56 136 65 174 8 38 18 60 26 60 5 0
9 7 9 15 0 8 5 15 10 15 6 0 10 6 10 13 0 8 6 14 13 14 23 0 69 36 78 61 5 14
12 22 16 18 3 -3 12 -1 20 6 10 8 17 7 27 -7 12 -16 11 -21 -8 -36 -16 -13
-18 -20 -9 -29 9 -10 14 -8 24 8 12 19 14 19 25 4 10 -14 10 -20 -2 -34 -25
-26 4 -34 31 -8 22 21 25 21 31 6 4 -11 -2 -27 -18 -44 -14 -15 -31 -36 -37
-47 -9 -15 -11 -15 -7 -2 3 9 2 17 -3 17 -4 0 -28 20 -53 46 -40 40 -46 43
-58 29 -11 -14 -11 -16 1 -13 9 2 14 -6 14 -25 -1 -21 3 -26 17 -21 24 7 59
-13 52 -31 -8 -21 -54 -20 -54 1 0 12 -4 14 -12 7 -7 -6 -23 -9 -35 -8 -18 1
-22 -3 -18 -19 2 -12 4 -27 4 -34 1 -10 6 -9 24 2 12 7 41 16 63 19 l42 5 -17
-29 c-11 -20 -21 -27 -33 -23 -21 6 -58 -4 -58 -16 0 -5 13 -11 29 -15 28 -6
29 -8 19 -31 -6 -13 -14 -23 -17 -22 -3 2 -36 17 -73 35 -57 27 -66 34 -61 53
3 11 11 19 17 17 51 -22 52 -21 28 5 -21 23 -22 26 -6 57 9 18 14 34 11 37 -9
9 -66 -121 -62 -141 2 -11 4 -24 4 -29 1 -4 8 -6 16 -2 8 3 15 0 15 -7 -1 -16
-31 -52 -50 -60 -8 -3 -1 -6 15 -6 23 -1 35 6 50 29 34 51 44 37 23 -31 -14
-48 -42 -78 -51 -55 -4 9 -2 18 3 21 6 4 10 11 10 17 0 7 -6 6 -15 -2 -31 -26
-15 -80 25 -80 37 0 54 22 46 60 -6 31 5 38 33 21 21 -14 5 -79 -29 -112 -25
-25 -31 -27 -61 -19 -47 13 -69 44 -69 94 0 47 -13 77 -23 52 -3 -8 -2 -18 2
-21 5 -3 7 -14 4 -25 -3 -11 0 -32 6 -48 6 -15 13 -38 16 -52 3 -14 9 -26 15
-28 17 -6 11 -31 -10 -42 -18 -10 -24 -7 -21 13 0 4 -3 7 -9 7 -5 0 -10 14
-10 30 0 17 -5 30 -11 30 -5 0 -8 4 -4 9 3 5 1 12 -5 16 -6 4 -10 -13 -10 -44
0 -29 5 -51 11 -51 5 0 7 6 3 13 -5 9 -4 9 5 1 22 -20 9 -57 -19 -59 -14 -1
-33 -5 -42 -10 -17 -7 -23 3 -19 28 2 16 -18 6 -24 -13 -3 -11 -13 -20 -20
-20 -19 0 -14 -40 5 -42 31 -3 75 4 88 14 6 6 12 7 12 2 0 -5 4 -3 9 5 11 17
51 22 52 7 0 -6 5 4 10 22 6 20 21 40 39 50 17 9 30 23 30 30 0 6 5 12 10 12
6 0 10 -6 10 -14 0 -8 11 -17 24 -20 35 -9 59 -81 41 -123 -14 -32 -39 -48
-58 -36 -12 8 -17 9 -37 12 -5 0 -20 12 -34 26 -30 30 -36 31 -29 5 8 -31 61
-70 95 -70 20 0 40 10 60 30 27 27 29 35 24 73 -16 108 5 270 46 352 43 86 53
103 91 146 20 23 37 49 37 58 0 9 -13 31 -30 49 -16 18 -30 37 -30 42 0 5 -10
16 -22 24 -12 9 -19 16 -14 16 5 0 3 7 -4 15 -7 8 -16 13 -20 10 -4 -3 -11 2
-14 11 -4 10 -2 13 6 8 6 -4 -3 11 -22 34 -18 23 -35 42 -36 42 -2 0 -17 -15
-33 -32z"/>
<path d="M1114 2283 c-57 -38 -57 -38 -39 -67 13 -19 21 -24 30 -16 17 14 66
-60 58 -89 -5 -20 -2 -19 48 11 46 29 50 33 28 36 -16 2 -32 16 -47 42 -26 46
-27 51 -6 43 15 -5 15 -3 0 25 -22 43 -28 44 -72 15z m40 -27 c-2 -6 10 -33
27 -60 22 -36 27 -51 18 -56 -8 -5 -23 9 -44 39 -18 26 -40 46 -50 46 -10 0
-20 6 -23 14 -3 8 0 11 7 7 6 -4 17 -1 25 7 17 16 46 18 40 3z"/>
<path d="M1649 2294 c-9 -11 -9 -21 0 -40 9 -20 17 -25 43 -22 38 4 58 30 42
55 -13 22 -69 26 -85 7z"/>
<path d="M2291 2301 c-11 -7 -10 -12 8 -22 11 -8 21 -22 21 -31 0 -10 11 -25
24 -33 13 -9 27 -26 31 -38 6 -22 6 -22 16 -1 8 16 5 26 -15 50 -14 16 -36 41
-48 56 -16 20 -27 25 -37 19z"/>
<path d="M769 2273 c-36 -40 -52 -63 -45 -63 10 0 86 72 86 81 0 16 -16 9 -41
-18z"/>
<path d="M770 2224 c0 -12 -9 -31 -20 -44 -11 -13 -20 -30 -20 -39 0 -12 6 -9
20 9 36 47 45 69 32 82 -9 9 -12 7 -12 -8z"/>
<path d="M2160 2188 c0 -10 7 -18 16 -18 8 0 13 -3 11 -8 -3 -4 6 -21 19 -37
18 -23 24 -26 24 -12 0 9 -16 34 -35 55 -25 27 -35 32 -35 20z"/>
<path d="M718 2093 c-20 -23 -34 -83 -19 -83 6 0 10 3 9 8 -4 11 26 72 34 72
5 0 8 5 8 10 0 15 -15 12 -32 -7z"/>
<path d="M2240 2092 c0 -9 9 -23 20 -30 23 -14 24 -13 10 22 -11 30 -30 35
-30 8z"/>
<path d="M1429 2095 c-3 -2 -21 -6 -39 -9 -61 -8 -139 -40 -147 -62 -3 -8 -11
-14 -17 -14 -7 0 -18 -11 -24 -25 -6 -14 -16 -25 -22 -25 -6 0 -8 -5 -4 -12 5
-7 0 -9 -14 -6 -12 4 -26 0 -33 -8 -10 -12 -9 -13 5 -8 11 4 16 1 16 -10 0 -9
-4 -16 -10 -16 -10 0 -38 -54 -45 -88 -2 -15 1 -22 11 -22 8 0 13 4 9 9 -3 6
3 14 12 20 10 6 14 11 9 11 -5 0 1 12 15 27 13 15 16 21 7 14 -14 -10 -18 -10
-18 -1 0 6 9 14 20 17 11 3 17 9 14 14 -3 5 3 9 12 9 10 0 14 3 11 7 -9 9 22
43 40 43 7 0 13 8 13 17 0 9 3 14 6 10 3 -3 18 5 32 19 15 13 34 24 44 24 9 0
20 5 23 10 4 6 10 8 15 5 5 -3 11 -1 14 4 3 5 57 8 119 7 88 -1 118 -6 137
-19 13 -9 32 -17 41 -17 9 0 20 -7 23 -16 4 -9 9 -14 13 -11 3 4 16 -6 27 -22
12 -15 27 -26 34 -24 6 3 12 -3 12 -11 0 -9 7 -19 15 -22 8 -4 15 -11 15 -17
0 -6 10 -22 23 -36 19 -22 19 -23 2 -12 -11 8 -6 1 11 -15 28 -26 32 -37 37
-102 6 -65 4 -75 -14 -90 -11 -9 -23 -16 -27 -15 -4 1 -12 -3 -18 -8 -7 -5
-28 -10 -48 -11 -20 -1 -36 -6 -36 -12 0 -5 -7 -1 -15 10 -13 18 -14 18 -8 -6
6 -21 4 -23 -9 -13 -8 7 -19 9 -24 5 -4 -4 -2 1 5 11 9 12 10 17 2 17 -6 0
-14 -7 -17 -15 -4 -8 -10 -15 -16 -15 -5 0 -7 4 -4 9 6 9 1 9 -56 -4 -27 -5
-39 -37 -19 -49 13 -8 189 22 257 45 85 28 97 42 90 117 -9 98 -60 222 -92
222 -8 0 -11 6 -7 15 3 10 0 15 -8 13 -7 -2 -13 4 -14 12 0 8 -9 15 -20 15
-11 0 -21 8 -23 18 -2 9 -7 15 -12 12 -5 -3 -14 4 -20 16 -7 11 -14 18 -17 15
-3 -3 -15 1 -27 9 -11 8 -31 15 -43 15 -13 0 -23 4 -23 9 0 5 -12 9 -27 9 -16
0 -60 3 -99 6 -39 3 -73 4 -75 1z"/>
<path d="M2177 2032 c4 -9 18 -35 31 -57 14 -22 25 -41 24 -42 -6 -8 -1 -23 7
-23 17 0 -36 126 -56 134 -8 3 -10 -1 -6 -12z"/>
<path d="M604 1973 c0 -10 -4 -43 -8 -73 -5 -39 -4 -51 3 -40 6 8 14 36 17 62
4 28 11 45 17 41 5 -3 8 0 5 8 -7 21 -34 22 -34 2z"/>
<path d="M2313 1920 c4 -28 29 -80 39 -80 6 0 7 -7 4 -15 -3 -9 0 -25 7 -35
30 -49 32 -2 2 53 -11 21 -23 37 -28 37 -4 0 -6 4 -3 9 3 4 -1 17 -9 27 -10
14 -13 15 -12 4z"/>
<path d="M2828 1919 c-10 -5 -18 -17 -18 -25 0 -8 -11 -19 -24 -24 -13 -5 -27
-18 -31 -30 -3 -11 -10 -18 -15 -15 -4 3 -11 -2 -14 -11 -9 -22 -8 -26 5 -19
14 9 59 -34 59 -57 0 -17 1 -17 20 2 23 23 26 31 7 24 -21 -8 -60 41 -52 65 3
12 12 21 19 21 17 0 68 -55 59 -63 -3 -4 -3 -7 1 -7 9 0 36 26 36 35 0 3 -4 4
-8 1 -5 -3 -20 7 -34 22 -20 21 -24 32 -17 50 4 12 12 22 17 22 16 0 64 -58
58 -69 -11 -18 2 -13 24 9 21 21 27 35 10 25 -6 -4 -26 7 -46 24 -19 17 -36
31 -37 31 -1 0 -10 -5 -19 -11z"/>
<path d="M1060 1798 c-7 -24 -14 -76 -16 -116 -3 -67 -1 -73 21 -88 18 -12
112 -43 133 -44 1 0 2 11 2 25 0 59 53 132 113 154 59 22 150 8 191 -31 11
-10 22 -15 25 -12 3 3 -7 17 -24 30 -17 14 -29 31 -27 41 3 14 1 15 -12 4 -9
-8 -16 -9 -16 -4 0 10 -9 12 -57 15 -16 1 -31 6 -35 12 -5 7 -8 3 -8 -8 0 -14
-3 -17 -11 -9 -8 8 -23 4 -53 -13 -49 -27 -88 -77 -88 -110 0 -26 -8 -30 -24
-14 -6 6 -19 8 -29 4 -17 -7 -17 -8 1 -21 15 -11 15 -13 2 -13 -30 0 -48 12
-48 32 0 15 4 18 23 12 l22 -6 -21 23 c-41 45 -60 109 -33 109 8 0 8 4 -1 15
-6 8 -9 23 -5 35 3 11 2 20 -3 20 -5 0 -15 -19 -22 -42z"/>
<path d="M2662 1754 c-43 -30 -13 -104 42 -104 25 0 56 32 56 58 0 17 -45 62
-62 62 -8 0 -24 -7 -36 -16z m60 -21 c22 -20 23 -46 3 -63 -32 -26 -88 44 -58
73 11 12 36 8 55 -10z"/>
<path d="M626 1708 c4 -13 6 -49 5 -80 -1 -35 2 -58 8 -58 7 0 11 26 11 64 0
53 3 65 18 69 16 4 16 5 0 6 -10 0 -18 6 -18 11 0 6 -7 10 -16 10 -11 0 -14
-6 -8 -22z"/>
<path d="M2098 1665 c3 -20 7 -23 18 -14 20 16 17 39 -5 39 -14 0 -17 -6 -13
-25z"/>
<path d="M2566 1658 c-9 -12 -16 -30 -16 -40 0 -24 35 -58 60 -58 27 0 60 35
60 63 -1 18 -3 17 -15 -10 -16 -37 -43 -43 -70 -17 -25 25 -15 58 18 62 15 2
25 8 22 13 -11 17 -44 9 -59 -13z"/>
<path d="M2314 1652 c-11 -7 -14 -82 -3 -82 3 0 10 15 16 34 11 36 5 60 -13
48z"/>
<path d="M1310 1639 c-129 -53 -134 -231 -9 -314 62 -40 160 -47 208 -13 49
33 72 69 78 121 6 51 -21 120 -59 153 -12 11 -18 13 -14 7 4 -7 9 -22 11 -33
4 -19 2 -19 -20 -4 l-24 16 21 -43 c51 -106 -41 -206 -142 -154 -30 15 -65 11
-53 -8 3 -6 1 -7 -5 -3 -17 10 -15 26 4 26 15 0 15 2 2 23 -25 37 -29 74 -14
111 16 39 23 44 85 62 l46 14 -60 -5 c-54 -4 -58 -3 -41 9 11 9 37 14 67 12
31 -1 50 2 53 10 3 7 -1 14 -7 16 -25 9 -103 7 -127 -3z m237 -229 c0 -18 -6
-30 -14 -30 -7 0 -12 -5 -10 -11 1 -6 -9 -15 -23 -20 l-24 -10 22 24 c12 13
19 27 15 32 -5 4 -2 5 5 1 8 -5 12 -1 12 12 0 15 8 32 15 32 1 0 2 -13 2 -30z"/>
<path d="M826 1529 c-23 -33 0 -79 39 -79 23 0 53 26 42 37 -4 3 -9 -2 -13
-11 -7 -19 -35 -21 -52 -4 -19 19 -14 48 11 57 28 11 47 4 48 -18 0 -10 2 -12
6 -3 15 38 -56 57 -81 21z"/>
<path d="M1358 1532 c-16 -9 -28 -20 -28 -24 0 -4 12 0 28 8 43 22 77 18 90
-11 19 -42 14 -69 -15 -87 -16 -10 -23 -18 -17 -18 20 0 64 41 64 60 0 32 -21
67 -47 79 -32 15 -43 14 -75 -7z"/>
<path d="M1050 1533 c1 -15 27 -43 34 -36 4 4 4 0 1 -8 -6 -15 29 -87 48 -100
5 -3 7 -8 5 -10 -1 -3 15 -24 37 -48 44 -48 122 -96 200 -123 115 -41 293 -7
370 70 14 14 25 21 25 17 0 -4 16 12 35 36 19 24 35 50 35 57 0 6 5 12 10 12
6 0 10 8 10 18 0 10 5 23 12 30 19 19 3 14 -20 -7 -12 -10 -19 -21 -15 -24 3
-4 -2 -9 -11 -13 -9 -3 -16 -12 -16 -18 0 -21 -57 -69 -72 -60 -7 4 -10 4 -6
-1 8 -9 -8 -27 -42 -46 -25 -13 -31 -15 -50 -18 -5 0 -10 -9 -11 -18 0 -12 -2
-13 -6 -5 -4 11 -9 10 -26 -1 -15 -9 -44 -13 -92 -10 -38 2 -84 3 -102 3 -17
0 -38 6 -46 15 -9 8 -24 15 -35 15 -10 0 -31 11 -46 25 -14 13 -30 26 -34 27
-4 2 -6 7 -4 13 2 5 1 7 -3 3 -8 -7 -37 16 -35 28 1 3 -6 11 -16 18 -11 8 -14
18 -9 26 5 7 4 11 -1 8 -5 -3 -17 2 -26 12 -17 16 -17 17 7 30 32 17 32 26 -1
34 -14 4 -43 18 -65 32 -21 13 -39 21 -39 17z"/>
<path d="M2327 1493 c3 -7 10 -13 15 -13 6 0 4 -8 -3 -17 -12 -16 -12 -17 2
-6 20 16 33 5 17 -14 -9 -11 -6 -20 14 -39 l25 -26 -2 39 c-4 76 -4 74 -27 71
-13 -2 -22 2 -21 8 1 6 -4 11 -12 11 -7 0 -11 -6 -8 -14z"/>
<path d="M1673 1467 c-48 -11 -58 -26 -15 -22 29 2 71 21 62 27 -3 2 -24 0
-47 -5z"/>
<path d="M500 1223 c0 -31 2 -54 5 -51 10 10 13 108 4 108 -5 0 -9 -25 -9 -57z"/>
<path d="M2172 1120 c-9 -15 -19 -19 -32 -15 -12 4 -20 2 -20 -4 0 -6 11 -11
24 -11 25 0 50 22 44 40 -2 6 -9 1 -16 -10z"/>
<path d="M1783 1081 c-20 -17 -21 -21 -10 -64 l12 -45 24 19 c18 15 22 25 17
45 -7 26 -26 29 -34 4 -3 -9 1 -11 12 -7 9 4 16 2 16 -2 0 -17 -31 -21 -37 -4
-4 10 2 23 17 35 14 11 20 22 14 28 -5 5 -18 1 -31 -9z"/>
<path d="M1164 1065 c-6 -25 17 -75 36 -75 18 0 23 23 6 32 -19 11 -22 38 -3
38 7 0 18 -5 24 -11 7 -7 12 -6 16 5 7 18 -20 36 -52 36 -14 0 -23 -9 -27 -25z"/>
<path d="M1730 1035 c-7 -17 -14 -24 -17 -17 -3 6 -11 12 -19 12 -10 0 -14
-14 -15 -52 l0 -53 -19 43 c-26 58 -44 54 -57 -13 -10 -57 -2 -70 23 -37 10
12 16 14 21 6 5 -8 16 -8 32 -3 19 8 23 15 19 44 -5 44 7 46 17 3 l8 -33 7 35
c7 32 8 33 15 13 4 -13 11 -23 16 -23 12 0 10 28 -6 70 l-13 35 -12 -30z"/>
<path d="M1246 1020 c-27 -32 -33 -50 -17 -50 5 0 11 9 14 20 3 11 12 20 21
20 21 0 20 -10 -1 -26 -11 -8 -13 -13 -5 -14 6 0 12 -6 12 -13 0 -7 14 -18 30
-24 28 -11 30 -10 30 13 0 33 15 30 18 -3 2 -30 22 -57 23 -32 0 7 2 33 5 57
4 38 1 43 -22 52 -14 6 -27 10 -29 10 -1 0 -6 -20 -10 -45 -8 -58 -27 -48 -23
13 4 56 -11 63 -46 22z"/>
<path d="M595 982 c5 -35 39 -72 65 -71 10 0 8 4 -6 11 -11 5 -31 28 -43 51
l-22 42 6 -33z"/>
<path d="M1103 991 c1 -11 3 -18 5 -16 8 7 107 -47 120 -66 7 -11 21 -19 31
-19 25 0 36 -49 12 -51 -9 -1 -20 -1 -25 0 -4 1 -14 -3 -20 -9 -7 -5 -15 -9
-17 -7 -5 2 16 -14 37 -28 8 -5 15 -28 17 -50 2 -40 2 -40 -33 -39 l-34 2 24
-20 c29 -24 31 -35 12 -65 -9 -15 -10 -23 -3 -23 18 0 12 -21 -11 -41 -20 -16
-20 -18 -5 -19 12 0 17 -8 17 -30 0 -23 -5 -31 -25 -36 -27 -7 -36 -44 -10
-44 8 0 15 5 15 10 0 6 5 10 10 10 16 0 12 -22 -7 -36 -12 -9 -14 -13 -5 -14
24 0 44 30 44 68 0 20 5 40 11 44 8 5 8 8 -2 8 -12 0 -11 3 1 18 9 9 19 42 23
72 4 30 8 63 10 73 2 9 -1 17 -6 17 -15 0 -10 26 7 41 12 10 15 27 12 73 l-3
61 35 -3 c140 -11 150 -14 150 -32 0 -10 5 -22 10 -25 8 -5 8 -11 0 -20 -6 -8
-9 -34 -6 -64 3 -28 2 -51 -2 -51 -4 0 -8 -22 -9 -50 l-2 -50 26 30 c18 22 31
29 45 24 26 -8 68 -12 68 -7 0 13 -33 34 -45 29 -9 -3 -15 1 -15 10 0 8 -4 13
-9 10 -5 -3 -14 0 -20 8 -12 14 -10 43 4 79 4 9 2 24 -5 32 -10 12 -9 16 6 21
11 3 29 10 42 15 13 5 28 6 34 3 7 -4 8 -2 4 5 -6 8 2 10 26 6 22 -4 28 -2 19
4 -11 7 -6 13 24 25 43 18 59 20 50 6 -3 -5 1 -10 10 -10 9 0 13 -4 10 -10 -4
-6 5 -10 20 -10 15 0 24 -4 20 -10 -3 -5 2 -10 11 -10 14 0 12 6 -12 33 -52
58 -49 57 -117 29 -50 -21 -78 -26 -147 -26 -143 1 -268 41 -407 131 -20 13
-22 13 -20 -6z"/>
<path d="M1395 972 c-3 -21 -8 -45 -10 -54 -5 -28 59 -24 79 4 9 12 16 27 16
33 0 22 -27 47 -53 50 -23 3 -27 -1 -32 -33z m51 -31 c-14 -22 -33 -12 -28 15
4 23 6 24 20 11 8 -8 11 -20 8 -26z"/>
<path d="M1826 968 l-68 -41 23 -18 c23 -18 24 -18 27 1 5 29 37 43 65 29 21
-12 21 -11 7 6 -14 17 -13 18 6 13 11 -3 29 1 39 8 18 13 18 14 -4 14 -16 0
-21 4 -17 15 8 21 0 18 -78 -27z"/>
<path d="M1517 982 c-22 -24 -21 -55 1 -75 34 -31 72 -14 72 30 0 18 -6 23
-25 23 -16 0 -25 -6 -25 -15 0 -8 5 -15 11 -15 5 0 7 5 4 10 -3 6 -1 10 4 10
6 0 11 -7 11 -15 0 -19 -24 -20 -39 -2 -12 15 3 37 25 37 6 0 14 7 18 15 8 22
-37 19 -57 -3z"/>
<path d="M698 978 c6 -6 8 -17 5 -24 -3 -8 1 -14 10 -14 9 0 22 -3 31 -6 9 -3
16 -1 16 5 0 6 -6 10 -12 9 -7 -2 -12 4 -10 13 1 11 -7 18 -24 22 -17 3 -22 1
-16 -5z"/>
<path d="M950 959 c-43 -31 -44 -53 -2 -42 14 3 21 11 18 19 -9 22 32 27 54 6
13 -12 30 -17 45 -14 14 2 25 0 25 -7 0 -5 -7 -8 -15 -5 -8 4 -15 2 -15 -4 0
-11 18 -11 38 1 11 7 15 3 14 -13 0 -3 15 -6 34 -7 19 -1 34 0 34 3 0 2 -25
16 -55 30 -53 25 -69 43 -42 45 19 2 -35 17 -64 18 -14 1 -45 -13 -69 -30z"/>
<path d="M1946 965 c-15 -23 -15 -24 1 -19 10 4 5 -5 -12 -19 -16 -14 -27 -29
-22 -33 4 -4 24 9 43 29 36 37 74 49 74 23 0 -7 -11 -21 -25 -30 -25 -17 -33
-36 -15 -36 6 0 28 12 50 26 42 28 41 32 -10 67 -34 24 -65 21 -84 -8z"/>
<path d="M717 924 c-3 -3 0 -13 8 -21 16 -15 55 -9 55 8 0 6 -7 6 -19 -1 -15
-8 -22 -7 -29 5 -4 9 -11 13 -15 9z"/>
<path d="M1827 913 c-14 -13 -6 -40 16 -61 20 -19 26 -20 42 -8 11 8 16 19 12
30 -9 22 -25 20 -29 -3 -3 -17 -5 -18 -21 -7 -20 16 -12 50 10 42 8 -3 11 -1
8 4 -7 11 -28 13 -38 3z"/>
<path d="M796 868 c23 -28 37 -38 43 -32 6 6 -40 54 -52 54 -6 0 -2 -10 9 -22z"/>
<path d="M592 852 c-3 -9 0 -18 7 -20 8 -3 22 -13 32 -23 11 -11 19 -16 19
-12 0 4 6 -2 14 -13 8 -10 18 -16 22 -12 4 4 -14 28 -40 52 -38 35 -49 41 -54
28z"/>
<path d="M961 820 c-1 -9 8 -23 18 -32 10 -9 23 -22 27 -30 5 -8 29 -21 54
-31 35 -13 41 -13 26 -2 -11 8 -23 15 -28 15 -4 0 -8 6 -8 13 0 14 -52 57 -69
57 -5 0 -12 6 -14 13 -4 8 -6 7 -6 -3z"/>
<path d="M1720 796 c0 -32 36 -59 62 -45 10 5 18 15 17 22 0 9 -2 9 -6 0 -7
-18 -50 -16 -57 3 -10 27 -7 33 22 37 25 4 25 4 -5 6 -29 1 -33 -2 -33 -23z"/>
<path d="M1849 793 c-6 -7 -15 -10 -20 -7 -5 3 -9 -2 -9 -10 0 -23 -36 -56
-60 -56 -12 0 -31 10 -44 23 -15 15 -30 21 -41 17 -16 -6 -15 -10 13 -41 25
-26 34 -31 41 -20 5 8 11 9 15 3 3 -6 -5 -19 -19 -30 -14 -11 -25 -22 -25 -25
0 -7 42 4 56 14 6 5 15 5 20 1 4 -4 2 1 -5 10 -14 19 -7 38 15 38 7 0 19 9 26
20 7 11 23 20 35 20 13 0 23 5 23 11 0 5 4 8 8 5 4 -2 14 0 22 6 12 8 11 9 -3
4 -14 -5 -17 -2 -13 12 7 22 -18 26 -35 5z"/>
<path d="M2170 801 c0 -7 -4 -9 -10 -6 -5 3 -10 1 -10 -4 0 -6 -6 -11 -13 -11
-7 0 -28 -14 -47 -32 -19 -17 -48 -39 -65 -50 l-30 -18 33 0 c22 0 32 5 32 16
0 8 3 14 8 12 9 -5 61 49 54 56 -3 4 4 6 15 6 22 0 50 26 39 37 -3 3 -6 1 -6
-6z"/>
<path d="M595 782 c2 -9 4 -25 4 -34 1 -23 13 -23 28 1 10 16 9 22 -12 35 -21
14 -23 14 -20 -2z"/>
<path d="M1995 750 c-22 -14 -31 -16 -38 -7 -5 8 -7 6 -5 -7 2 -11 9 -21 17
-24 8 -3 11 0 7 7 -4 6 -1 11 7 11 17 0 68 39 52 40 -5 0 -23 -9 -40 -20z"/>
<path d="M710 728 c19 -21 37 -33 39 -27 4 12 -30 52 -37 44 -3 -3 -12 1 -21
7 -9 7 0 -4 19 -24z"/>
<path d="M2372 736 c-7 -15 -7 -28 -2 -31 13 -8 30 28 21 43 -5 9 -11 5 -19
-12z"/>
<path d="M2146 724 c-14 -15 -26 -32 -26 -38 0 -7 -12 -19 -27 -28 -41 -24
-77 -57 -70 -64 9 -10 77 36 77 52 0 8 4 14 9 14 15 0 81 63 81 77 0 20 -15
16 -44 -13z"/>
<path d="M980 700 c35 -31 50 -37 50 -21 0 14 -41 41 -52 35 -4 -3 -8 0 -8 5
0 6 -6 11 -12 11 -7 -1 3 -14 22 -30z"/>
<path d="M1635 719 c-5 -8 -4 -10 3 -5 7 4 12 3 12 -3 0 -5 3 -17 7 -26 5 -15
3 -16 -15 -6 -38 20 -46 11 -17 -19 22 -23 32 -27 46 -19 26 13 24 41 -5 68
-18 17 -26 19 -31 10z"/>
<path d="M650 711 c0 -7 -5 -9 -12 -5 -7 4 -8 3 -4 -4 4 -7 13 -12 21 -12 7 0
16 -8 19 -18 6 -18 45 -47 52 -39 3 2 -13 24 -36 48 -22 24 -40 37 -40 30z"/>
<path d="M850 711 c0 -5 8 -17 17 -27 20 -20 32 -1 13 21 -14 17 -30 20 -30 6z"/>
<path d="M1947 654 c-16 -9 -27 -17 -25 -20 7 -6 68 19 68 28 0 11 -11 9 -43
-8z"/>
<path d="M2147 615 c-20 -19 -37 -31 -37 -27 0 5 -6 9 -14 9 -7 0 -13 -6 -12
-14 1 -7 5 -13 9 -13 4 0 11 0 15 0 5 0 17 8 28 18 10 9 31 23 46 31 15 8 25
18 22 23 -9 14 -18 9 -57 -27z"/>
<path d="M1833 633 c-22 -8 -14 -21 12 -19 14 0 25 7 25 14 0 12 -15 15 -37 5z"/>
<path d="M590 607 c0 -29 31 -67 54 -67 8 0 18 -9 21 -20 4 -11 11 -17 17 -14
6 4 6 10 -1 17 -28 28 -7 25 29 -3 28 -23 40 -27 40 -17 0 9 -10 19 -22 23
-13 3 -31 13 -40 21 -9 8 -22 12 -29 7 -7 -4 -10 -3 -6 3 3 5 -9 25 -28 43
l-35 34 0 -27z"/>
<path d="M737 624 c-8 -8 22 -54 36 -54 6 0 18 -7 27 -15 14 -13 16 -12 17 5
1 14 -5 20 -18 20 -13 0 -18 4 -13 12 5 8 2 9 -10 5 -9 -4 -15 -3 -12 2 7 11
-18 33 -27 25z"/>
<path d="M1788 625 c-3 -3 -16 -8 -29 -10 -41 -8 -119 -39 -119 -47 0 -10 57
1 93 18 19 9 25 9 20 1 -3 -7 3 -3 15 7 16 14 22 15 22 6 0 -11 3 -11 12 -2 8
8 9 15 2 22 -6 6 -13 8 -16 5z"/>
<path d="M1507 603 c-13 -12 -7 -32 15 -53 25 -23 44 -26 51 -7 4 10 -2 13
-19 9 -19 -3 -24 0 -24 16 0 12 8 26 18 31 15 9 14 10 -9 11 -14 0 -29 -3 -32
-7z"/>
<path d="M2320 561 c-13 -17 -27 -28 -31 -25 -4 2 -9 -3 -13 -11 -3 -9 -12
-12 -23 -9 -17 5 -17 5 0 -6 15 -10 23 -8 45 12 63 57 72 68 54 68 -4 0 -18
-13 -32 -29z"/>
<path d="M1472 540 c-1 -17 3 -30 9 -30 6 0 9 -9 6 -20 -7 -29 11 -36 22 -8 6
13 10 17 10 8 1 -9 -5 -24 -13 -35 -14 -21 -17 -66 -4 -65 23 1 38 15 37 34
-1 16 -2 17 -6 4 -2 -10 -9 -18 -14 -18 -12 0 -11 3 3 37 6 15 12 32 12 37 1
5 10 12 21 17 28 11 35 11 35 -1 0 -5 -10 -10 -23 -10 -14 0 -24 -6 -24 -14 0
-11 15 -14 66 -13 l66 2 0 -31 c0 -21 4 -30 12 -27 7 3 13 17 13 32 0 14 4 22
8 16 8 -11 37 -13 47 -4 5 6 -41 19 -80 24 -5 0 -9 6 -8 12 2 8 -9 10 -31 6
-24 -4 -35 -1 -39 11 -3 8 -2 18 3 21 6 4 10 10 10 16 0 5 -9 0 -20 -11 -28
-28 -57 -25 -88 10 l-28 30 -2 -30z"/>
<path d="M845 520 c14 -15 22 -17 38 -9 15 9 17 13 6 20 -8 4 -16 4 -20 -3 -4
-7 -9 -7 -13 1 -4 6 -12 11 -18 11 -6 0 -3 -9 7 -20z"/>
<path d="M2383 528 c-4 -8 -29 -29 -55 -48 -27 -18 -48 -37 -48 -42 0 -5 17 4
37 21 21 17 43 31 50 31 7 0 17 9 23 21 13 23 7 38 -7 17z"/>
<path d="M592 474 c2 -25 8 -50 15 -56 9 -7 13 -7 13 0 0 6 -5 12 -11 14 -5 2
-7 11 -4 20 6 16 11 15 54 -7 26 -13 53 -31 60 -39 8 -9 19 -16 25 -16 6 0 -2
11 -18 25 -16 14 -32 25 -36 25 -3 0 -25 18 -48 40 -22 22 -44 40 -46 40 -3 0
-5 -21 -4 -46z"/>
<path d="M1740 510 c-8 -5 -18 -6 -22 -4 -4 3 -8 -2 -8 -10 0 -20 34 -21 54
-1 9 9 17 11 21 5 3 -5 11 -10 18 -10 18 0 -6 20 -30 24 -11 2 -26 0 -33 -4z"/>
<path d="M1021 476 c2 -9 7 -16 10 -14 4 2 15 -5 26 -14 13 -12 23 -14 33 -8
13 8 13 10 -1 10 -9 0 -29 10 -44 22 -23 18 -27 19 -24 4z"/>
<path d="M1963 474 c-2 -7 -18 -18 -34 -24 -16 -7 -29 -17 -29 -23 0 -7 4 -7
12 1 7 7 19 12 28 12 14 1 60 33 60 42 0 11 -32 3 -37 -8z"/>
<path d="M756 473 c-8 -8 95 -72 116 -73 9 0 21 -6 25 -14 4 -8 24 -24 44 -35
31 -19 37 -19 42 -6 5 10 -2 17 -21 21 -15 4 -39 15 -54 25 -14 11 -30 19 -35
19 -6 0 -18 9 -28 20 -10 11 -26 20 -37 20 -10 0 -18 4 -18 9 0 11 -26 22 -34
14z"/>
<path d="M1290 448 c0 -5 6 -6 13 -2 8 6 8 3 -2 -9 -12 -15 -9 -17 38 -16 41
1 51 5 51 19 0 14 -9 17 -50 17 -27 0 -50 -4 -50 -9z"/>
<path d="M1410 444 c0 -16 7 -20 38 -21 20 -1 31 0 25 3 -7 3 -13 10 -13 15 0
6 5 7 10 4 6 -3 10 -1 10 4 0 6 -9 11 -21 11 -16 0 -19 -4 -15 -17 6 -15 4
-15 -14 2 -19 18 -20 18 -20 -1z"/>
<path d="M2103 431 c-29 -14 -55 -32 -57 -38 -6 -16 14 -13 32 5 7 6 19 12 25
12 13 1 62 39 56 43 -2 2 -28 -8 -56 -22z"/>
<path d="M1784 425 c-4 -9 -14 -13 -28 -10 -26 6 -43 -4 -47 -29 -5 -25 -29
-33 -29 -9 -1 16 -2 16 -10 2 -14 -23 -60 -13 -60 13 0 15 5 19 20 15 11 -3
23 -1 26 4 3 5 -15 9 -40 9 -44 0 -67 -12 -46 -25 20 -12 -2 -25 -41 -23 -24
1 -43 7 -49 17 -7 12 -9 12 -10 2 0 -11 -3 -11 -15 -1 -12 10 -15 10 -16 -1 0
-8 -4 -5 -9 6 -8 19 -9 19 -9 -2 -1 -20 4 -23 34 -23 l35 0 0 -70 0 -70 -135
0 c-115 0 -135 2 -135 15 0 21 -27 30 -45 15 -8 -7 -15 -16 -15 -20 0 -16 148
-32 236 -25 49 3 126 9 171 11 64 4 81 8 77 19 -4 11 -21 13 -68 9 l-63 -5 0
30 c0 30 1 31 50 31 63 0 57 9 -6 11 -32 2 -47 7 -47 16 0 10 23 13 99 13 l99
0 14 30 c10 25 17 30 36 25 26 -6 65 11 57 26 -9 14 -25 11 -31 -6z"/>
<path d="M1084 415 c-18 -13 -18 -14 5 -8 22 6 23 4 19 -21 -5 -25 -4 -26 9
-13 9 9 13 23 8 36 -8 25 -15 26 -41 6z"/>
<path d="M1266 396 c5 -12 2 -15 -10 -10 -9 3 -16 1 -16 -5 0 -17 28 -13 39 7
8 13 10 14 11 2 0 -11 14 -16 54 -18 44 -2 54 0 52 12 -4 26 -17 32 -28 13 -6
-12 -14 -15 -21 -9 -7 5 -19 10 -27 10 -8 0 -25 4 -38 7 -18 6 -21 4 -16 -9z"/>
<path d="M1157 357 c44 -17 49 -24 28 -47 -18 -19 -17 -20 1 -20 11 0 25 -5
32 -12 19 -19 24 -4 17 46 l-7 46 -52 -1 c-51 -1 -51 -1 -19 -12z"/>
<path d="M1727 351 c-4 -17 -2 -18 20 -8 19 8 26 8 33 -2 5 -9 9 -10 11 -2 2
6 16 12 32 13 51 4 27 18 -32 18 -50 0 -59 -3 -64 -19z"/>
<path d="M2371 339 c-8 -19 -17 -38 -19 -43 -3 -5 5 0 17 11 14 13 21 30 19
43 -3 20 -5 18 -17 -11z"/>
<path d="M1256 344 c-3 -9 -6 -16 -6 -17 0 -1 15 -3 34 -4 27 -2 34 1 32 14
-4 24 -23 28 -29 6 -4 -17 -5 -17 -6 0 -1 21 -17 22 -25 1z"/>
<path d="M1337 340 c-3 -11 -1 -20 4 -20 5 0 9 6 9 13 0 8 3 7 9 -3 12 -18 75
-17 98 2 12 9 15 9 9 1 -4 -7 -2 -13 3 -13 6 0 11 7 11 15 0 18 -21 20 -39 3
-10 -11 -12 -10 -9 2 3 17 -33 15 -43 -2 -4 -5 -9 -3 -12 6 -9 22 -34 20 -40
-4z"/>
<path d="M592 298 c1 -31 5 -55 10 -52 4 3 8 1 8 -5 0 -5 39 -10 92 -10 58 -1
88 3 82 9 -5 5 -24 10 -42 12 -17 1 -32 6 -32 10 0 4 -9 8 -20 8 -11 0 -20 -5
-20 -11 0 -5 -4 -7 -10 -4 -5 3 -10 1 -10 -4 0 -20 -36 10 -37 30 -1 11 2 17
8 14 15 -10 10 9 -11 35 l-20 25 2 -57z"/>
<path d="M2150 310 c0 -6 -4 -8 -10 -5 -12 7 -50 -12 -50 -26 0 -6 9 -5 23 3
12 7 27 11 34 10 15 -3 26 15 13 23 -5 3 -10 1 -10 -5z"/>
<path d="M1345 290 c-4 -7 -20 -10 -36 -8 -18 3 -28 0 -26 -6 6 -17 40 -18 62
-2 11 8 17 17 13 21 -3 3 -9 1 -13 -5z"/>
<path d="M2248 257 c-7 -8 -20 -16 -28 -20 -9 -3 -5 -6 10 -6 15 -1 30 7 38
19 14 23 0 27 -20 7z"/>
<path d="M1787 253 c-2 -1 -29 -5 -62 -8 -89 -8 -80 -16 16 -14 62 1 86 5 86
15 0 10 -32 16 -40 7z"/>
<path d="M1965 240 c-27 -7 -25 -8 18 -9 26 0 47 4 47 9 0 11 -21 11 -65 0z"/>
<path d="M1585 200 c5 -9 104 -4 114 6 2 2 -24 4 -58 4 -38 0 -60 -4 -56 -10z"/>
<path d="M1261 146 c9 -9 137 -14 150 -5 9 5 -16 9 -70 9 -46 0 -82 -2 -80 -4z"/>
</g>
</svg>
